<svg width="64" height="64" viewBox="0 0 64 64" fill="none" xmlns="http://www.w3.org/2000/svg">
<path d="M10.2865 45.8915L14.0521 39.7499L15.5875 40.6913L11.8219 46.8328L10.2865 45.8915Z" fill="url(#paint0_linear)"/>
<path d="M11.5034 45.576C11.2995 45.452 11.0546 45.4141 10.8227 45.4706C10.5908 45.5272 10.3908 45.6735 10.2668 45.8775C8.70088 48.4322 8.57879 51.6182 9.94464 54.2852C11.5253 57.223 14.6071 59.0394 17.9428 58.9994H47.1799C49.4674 59.0022 51.6621 58.0948 53.2797 56.4772C54.8972 54.8597 55.8047 52.665 55.8018 50.3775C55.7993 48.7899 55.3613 47.2334 54.5355 45.8775L39.0998 20.6949C38.8396 20.2702 38.7019 19.7818 38.702 19.2837V10.2469C38.7028 10.0086 38.7949 9.77955 38.9594 9.60704L40.9475 7.62707C41.3889 7.18803 41.5219 6.5261 41.2843 5.95063C41.0468 5.37516 40.4856 4.99981 39.863 5H24.9412C24.3186 4.99981 23.7574 5.37516 23.5198 5.95063C23.2822 6.5261 23.4153 7.18803 23.8567 7.62707L25.8366 9.59714C26.0073 9.7707 26.104 10.0036 26.1066 10.2469V19.2837C26.1068 19.7818 25.9691 20.2702 25.7089 20.6949L14.0315 39.7396C13.7718 40.1636 13.905 40.7178 14.3289 40.9775C14.7529 41.2372 15.3072 41.1041 15.5669 40.6801L27.2388 21.6363C27.6728 20.9283 27.9023 20.1141 27.9021 19.2837V10.2469C27.9021 9.52921 27.6192 8.84042 27.1146 8.32996L25.5775 6.79998H39.2267L37.6796 8.34076C37.1806 8.84967 36.9013 9.53418 36.902 10.2469V19.2837C36.902 20.1138 37.1315 20.9277 37.5653 21.6354L52.9983 46.8117C53.6532 47.8859 54.0003 49.1194 54.0018 50.3775C54.0044 52.1875 53.2866 53.9243 52.0066 55.2042C50.7267 56.4841 48.99 57.202 47.1799 57.1994H17.9428C15.2848 57.2413 12.8232 55.8042 11.5529 53.4689C10.4703 51.3563 10.5675 48.8321 11.8094 46.809C12.0644 46.3839 11.9276 45.8326 11.5034 45.576Z" fill="url(#paint1_linear)"/>
<path d="M26.3316 26.5594L13.3439 47.7497C12.4292 49.2402 12.3572 51.0996 13.154 52.6564C14.1163 54.3898 15.9607 55.4464 17.9428 55.3996H47.0314C48.1888 55.4177 49.3196 55.0525 50.2479 54.361C52.2752 52.7903 52.7997 49.9477 51.4665 47.7569L38.4725 26.5594C38.1434 26.0275 37.5635 25.7026 36.938 25.6999H27.8661C27.2405 25.7021 26.6603 26.0271 26.3316 26.5594ZM49.1418 52.9399C48.5298 53.3854 47.7882 53.6172 47.0314 53.5996H17.9428C16.6385 53.6458 15.4152 52.9684 14.7622 51.8383C14.2509 50.8373 14.2973 49.6423 14.8846 48.6839L15.1816 48.1997H49.6269L49.9293 48.6938C50.7863 50.1028 50.448 51.9308 49.1436 52.9399H49.1418ZM26.2965 42.14C25.5475 41.0769 25.1681 39.7974 25.2165 38.4978C26.5113 38.4633 27.7825 38.8481 28.8408 39.5949C29.2331 39.9776 29.4684 40.4931 29.5005 41.0402C29.5326 41.5167 29.3605 41.9844 29.0271 42.3263C28.2186 43.0189 27.0041 42.9352 26.2983 42.1382L26.2965 42.14ZM34.3784 38.19C33.9369 38.0094 33.5933 37.6494 33.4334 37.2C33.2449 36.6852 33.2562 36.1185 33.4649 35.6115C34.1423 34.4998 35.1667 33.6418 36.38 33.1698C36.925 34.345 37.0771 35.6644 36.8138 36.9327C36.6182 37.4451 36.2381 37.866 35.7482 38.1126C35.3243 38.3309 34.8274 38.3584 34.382 38.1882L34.3784 38.19ZM48.5235 46.3997H35.084C35.0906 46.3399 35.0906 46.2795 35.084 46.2197C34.721 44.1949 34.6281 42.131 34.8077 40.0818C34.8617 40.0818 34.9148 40.0971 34.9688 40.0971C35.5138 40.0943 36.0509 39.9672 36.5393 39.7254C37.4321 39.2822 38.1269 38.521 38.4869 37.5915C39.0925 36.0615 38.5967 34.0077 38.0738 32.5516C37.8926 32.0649 37.5134 31.6779 37.0305 31.4869C36.5476 31.2959 36.0063 31.3188 35.5412 31.5499C34.1651 32.2501 32.3993 33.4056 31.7927 34.9374C31.4187 35.8615 31.404 36.892 31.7513 37.8264C32.0032 38.5086 32.4612 39.0956 33.0617 39.5058C32.8062 41.8027 32.882 44.1243 33.2867 46.3997H31.502C31.4185 45.2955 31.1082 44.2204 30.5903 43.2416C31.0918 42.5881 31.3442 41.7774 31.3022 40.9548C31.2502 39.9591 30.8274 39.0191 30.117 38.3196C28.9524 37.1559 26.877 36.7959 25.3317 36.6996C24.8117 36.6654 24.3027 36.8604 23.9385 37.2333C23.5684 37.5987 23.373 38.1054 23.4021 38.6247C23.4984 40.1655 23.8575 42.2462 25.0221 43.4108C25.7651 44.1645 26.7771 44.5922 27.8355 44.5997C28.2752 44.5996 28.7111 44.5187 29.1216 44.3612C29.4269 45.0037 29.6231 45.6927 29.7021 46.3997H16.2805L27.8661 27.4999H36.938L48.5235 46.3997Z" fill="url(#paint2_linear)"/>
<path d="M19.803 51.7996C20.3 51.7996 20.7029 51.3966 20.7029 50.8996C20.7029 50.4025 20.3 49.9996 19.803 49.9996C19.3059 49.9996 18.903 50.4025 18.903 50.8996C18.903 51.3966 19.3059 51.7996 19.803 51.7996Z" fill="url(#paint3_linear)"/>
<path d="M27.9025 51.7996C28.3996 51.7996 28.8025 51.3966 28.8025 50.8996C28.8025 50.4025 28.3996 49.9996 27.9025 49.9996C27.4055 49.9996 27.0025 50.4025 27.0025 50.8996C27.0025 51.3966 27.4055 51.7996 27.9025 51.7996Z" fill="url(#paint4_linear)"/>
<path d="M36.0021 51.7996C36.4992 51.7996 36.9021 51.3966 36.9021 50.8996C36.9021 50.4025 36.4992 49.9996 36.0021 49.9996C35.5051 49.9996 35.1021 50.4025 35.1021 50.8996C35.1021 51.3966 35.5051 51.7996 36.0021 51.7996Z" fill="url(#paint5_linear)"/>
<path d="M44.1022 51.7996C44.5993 51.7996 45.0022 51.3966 45.0022 50.8996C45.0022 50.4025 44.5993 49.9996 44.1022 49.9996C43.6052 49.9996 43.2023 50.4025 43.2023 50.8996C43.2023 51.3966 43.6052 51.7996 44.1022 51.7996Z" fill="url(#paint6_linear)"/>
<path d="M30.6024 23.8998C31.0995 23.8998 31.5024 23.4969 31.5024 22.9998C31.5024 22.5028 31.0995 22.0999 30.6024 22.0999C30.1054 22.0999 29.7024 22.5028 29.7024 22.9998C29.7024 23.4969 30.1054 23.8998 30.6024 23.8998Z" fill="url(#paint7_linear)"/>
<path d="M34.2027 21.1997C34.6998 21.1997 35.1027 20.7968 35.1027 20.2998C35.1027 19.8027 34.6998 19.3998 34.2027 19.3998C33.7057 19.3998 33.3028 19.8027 33.3028 20.2998C33.3028 20.7968 33.7057 21.1997 34.2027 21.1997Z" fill="url(#paint8_linear)"/>
<path d="M31.5021 16.6999C31.9991 16.6999 32.4021 16.297 32.4021 15.7999C32.4021 15.3029 31.9991 14.8999 31.5021 14.8999C31.005 14.8999 30.6021 15.3029 30.6021 15.7999C30.6021 16.297 31.005 16.6999 31.5021 16.6999Z" fill="url(#paint9_linear)"/>
<path d="M33.3029 13.0998C33.7999 13.0998 34.2028 12.6969 34.2028 12.1998C34.2028 11.7028 33.7999 11.2998 33.3029 11.2998C32.8058 11.2998 32.4029 11.7028 32.4029 12.1998C32.4029 12.6969 32.8058 13.0998 33.3029 13.0998Z" fill="url(#paint10_linear)"/>
<path d="M30.6024 10.4C31.0995 10.4 31.5024 9.99702 31.5024 9.49997C31.5024 9.00292 31.0995 8.59998 30.6024 8.59998C30.1054 8.59998 29.7024 9.00292 29.7024 9.49997C29.7024 9.99702 30.1054 10.4 30.6024 10.4Z" fill="url(#paint11_linear)"/>
<defs>
<linearGradient id="paint0_linear" x1="4.84452" y1="4.93425" x2="60.5576" y2="62.3652" gradientUnits="userSpaceOnUse">
<stop stop-color="#67DA96"/>
<stop offset="1" stop-color="#48AD4C"/>
</linearGradient>
<linearGradient id="paint1_linear" x1="4.84452" y1="4.93425" x2="60.5576" y2="62.3652" gradientUnits="userSpaceOnUse">
<stop stop-color="#67DA96"/>
<stop offset="1" stop-color="#48AD4C"/>
</linearGradient>
<linearGradient id="paint2_linear" x1="4.84452" y1="4.93425" x2="60.5576" y2="62.3652" gradientUnits="userSpaceOnUse">
<stop stop-color="#67DA96"/>
<stop offset="1" stop-color="#48AD4C"/>
</linearGradient>
<linearGradient id="paint3_linear" x1="4.84452" y1="4.93425" x2="60.5576" y2="62.3652" gradientUnits="userSpaceOnUse">
<stop stop-color="#67DA96"/>
<stop offset="1" stop-color="#48AD4C"/>
</linearGradient>
<linearGradient id="paint4_linear" x1="4.84452" y1="4.93425" x2="60.5576" y2="62.3652" gradientUnits="userSpaceOnUse">
<stop stop-color="#67DA96"/>
<stop offset="1" stop-color="#48AD4C"/>
</linearGradient>
<linearGradient id="paint5_linear" x1="4.84452" y1="4.93425" x2="60.5576" y2="62.3652" gradientUnits="userSpaceOnUse">
<stop stop-color="#67DA96"/>
<stop offset="1" stop-color="#48AD4C"/>
</linearGradient>
<linearGradient id="paint6_linear" x1="4.84452" y1="4.93425" x2="60.5576" y2="62.3652" gradientUnits="userSpaceOnUse">
<stop stop-color="#67DA96"/>
<stop offset="1" stop-color="#48AD4C"/>
</linearGradient>
<linearGradient id="paint7_linear" x1="4.84452" y1="4.93425" x2="60.5576" y2="62.3652" gradientUnits="userSpaceOnUse">
<stop stop-color="#67DA96"/>
<stop offset="1" stop-color="#48AD4C"/>
</linearGradient>
<linearGradient id="paint8_linear" x1="4.84452" y1="4.93425" x2="60.5576" y2="62.3652" gradientUnits="userSpaceOnUse">
<stop stop-color="#67DA96"/>
<stop offset="1" stop-color="#48AD4C"/>
</linearGradient>
<linearGradient id="paint9_linear" x1="4.84452" y1="4.93425" x2="60.5576" y2="62.3652" gradientUnits="userSpaceOnUse">
<stop stop-color="#67DA96"/>
<stop offset="1" stop-color="#48AD4C"/>
</linearGradient>
<linearGradient id="paint10_linear" x1="4.84452" y1="4.93425" x2="60.5576" y2="62.3652" gradientUnits="userSpaceOnUse">
<stop stop-color="#67DA96"/>
<stop offset="1" stop-color="#48AD4C"/>
</linearGradient>
<linearGradient id="paint11_linear" x1="4.84452" y1="4.93425" x2="60.5576" y2="62.3652" gradientUnits="userSpaceOnUse">
<stop stop-color="#67DA96"/>
<stop offset="1" stop-color="#48AD4C"/>
</linearGradient>
</defs>
</svg>
