<svg width="64" height="64" viewBox="0 0 64 64" fill="none" xmlns="http://www.w3.org/2000/svg">
    <g clip-path="url(#clip0_378:1211)">
        <path d="M8.53231 54.3999H6.35951C3.90279 54.4134 1.74426 52.7728 1.09977 50.4021C1.01983 50.0783 1.09437 49.7357 1.30163 49.4744C1.50888 49.2131 1.82548 49.0625 2.15897 49.0666H3.10084C6.07303 49.0406 8.50416 51.4278 8.53231 54.3999Z" fill="#E8EDFC"/>
        <path d="M14.9065 49.0666C15.24 49.0625 15.5566 49.2131 15.7639 49.4744C15.9711 49.7357 16.0457 50.0783 15.9657 50.4021C15.3212 52.7728 13.1627 54.4134 10.706 54.3999H8.5332C8.56135 51.4278 10.9925 49.0406 13.9647 49.0666H14.9065Z" fill="#E8EDFC"/>
        <path d="M55.4657 54.3999H53.2929C50.8361 54.4134 48.6776 52.7728 48.0331 50.4021C47.9532 50.0783 48.0277 49.7357 48.235 49.4744C48.4422 49.2131 48.7588 49.0625 49.0923 49.0666H50.0342C53.0064 49.0406 55.4375 51.4278 55.4657 54.3999V54.3999Z" fill="#E8EDFC"/>
        <path d="M61.8399 49.0666C62.1734 49.0625 62.49 49.2131 62.6973 49.4744C62.9045 49.7357 62.979 50.0783 62.8991 50.4021C62.2546 52.7728 60.0961 54.4134 57.6394 54.3999H55.4666C55.4947 51.4278 57.9258 49.0406 60.898 49.0666H61.8399Z" fill="#E8EDFC"/>
        <path d="M8.53231 44.8004H6.35951C3.90279 44.8139 1.74426 43.1732 1.09977 40.8025C1.01983 40.4787 1.09437 40.1361 1.30163 39.8748C1.50888 39.6135 1.82548 39.4629 2.15897 39.467H3.10084C6.07303 39.441 8.50416 41.8282 8.53231 44.8004Z" fill="#E8EDFC"/>
        <path d="M14.9065 39.467C15.24 39.4629 15.5566 39.6135 15.7639 39.8748C15.9711 40.1361 16.0457 40.4787 15.9657 40.8025C15.3212 43.1732 13.1627 44.8139 10.706 44.8004H8.5332C8.56135 41.8282 10.9925 39.441 13.9647 39.467H14.9065Z" fill="#E8EDFC"/>
        <path d="M55.4657 44.8004H53.2929C50.8361 44.8139 48.6776 43.1732 48.0331 40.8025C47.9532 40.4787 48.0277 40.1361 48.235 39.8748C48.4422 39.6135 48.7588 39.4629 49.0923 39.467H50.0342C53.0064 39.441 55.4375 41.8282 55.4657 44.8004V44.8004Z" fill="#E8EDFC"/>
        <path d="M61.8399 39.467C62.1734 39.4629 62.49 39.6135 62.6973 39.8748C62.9045 40.1361 62.979 40.4787 62.8991 40.8025C62.2546 43.1732 60.0961 44.8139 57.6394 44.8004H55.4666C55.4947 41.8282 57.9258 39.441 60.898 39.467H61.8399Z" fill="#E8EDFC"/>
        <path d="M29.8662 32H34.1329V54.4H29.8662V32Z" fill="#A4C2F7"/>
        <path d="M36.2658 24.5332L36.2658 27.2319C36.2664 27.5615 36.1897 27.8867 36.0418 28.1812L34.1324 31.9999H29.8658L27.9564 28.1812C27.8085 27.8867 27.7318 27.5615 27.7324 27.2319L27.7324 24.5332H36.2658Z" fill="#E8EDFC"/>
        <path d="M27.7324 19.2002H36.2658V24.5335H27.7324V19.2002Z" fill="#CAD9FC"/>
        <path d="M37.3332 14.9336H26.6665C25.4883 14.9336 24.5332 15.8887 24.5332 17.0669C24.5332 18.2451 25.4883 19.2003 26.6665 19.2003H37.3332C38.5114 19.2003 39.4665 18.2451 39.4665 17.0669C39.4665 15.8887 38.5114 14.9336 37.3332 14.9336Z" fill="#E8EDFC"/>
        <path d="M1.06665 54.3999H62.9333V60.7999C62.9333 61.9781 61.9782 62.9332 60.8 62.9332H3.19998C2.02178 62.9332 1.06665 61.9781 1.06665 60.7999V54.3999Z" fill="#E8EDFC"/>
        <path d="M59.7337 54.3999V60.7999C59.7337 61.9781 58.7786 62.9332 57.6003 62.9332H60.8004C61.9786 62.9332 62.9337 61.9781 62.9337 60.7999V54.3999H59.7337Z" fill="#CAD9FC"/>
        <path d="M8.54387 54.2998C8.54387 54.3339 8.5332 54.3659 8.5332 54.4001H9.5604C9.21918 54.3982 8.87887 54.3647 8.54387 54.2998Z" fill="white"/>
        <path d="M6.35951 54.4003H8.53231C8.53231 54.3641 8.52164 54.331 8.52164 54.2937C6.4838 53.9144 4.84309 52.4017 4.29977 50.4014C4.1965 50.0003 4.33702 49.5758 4.65924 49.3155C4.15461 49.1574 3.62963 49.0736 3.10084 49.067H2.15897C1.82548 49.0629 1.50888 49.2135 1.30163 49.4748C1.09437 49.7361 1.01983 50.0786 1.09977 50.4024C1.74491 52.7727 3.90304 54.4131 6.35951 54.4003V54.4003Z" fill="white"/>
        <path d="M8.54387 44.6997C8.54387 44.7338 8.5332 44.7658 8.5332 44.8H9.5604C9.21918 44.7981 8.87887 44.7646 8.54387 44.6997Z" fill="white"/>
        <path d="M6.35951 44.8002H8.53231C8.53231 44.764 8.52164 44.7309 8.52164 44.6936C6.4838 44.3143 4.84309 42.8017 4.29977 40.8013C4.1965 40.4002 4.33702 39.9757 4.65924 39.7154C4.15461 39.5573 3.62963 39.4735 3.10084 39.4669H2.15897C1.82548 39.4628 1.50888 39.6134 1.30163 39.8747C1.09437 40.136 1.01983 40.4785 1.09977 40.8023C1.74491 43.1726 3.90304 44.813 6.35951 44.8002V44.8002Z" fill="white"/>
        <path d="M3.19998 62.9332H6.39998C5.22178 62.9332 4.26665 61.9781 4.26665 60.7999V54.3999H1.06665V60.7999C1.06665 61.9781 2.02178 62.9332 3.19998 62.9332Z" fill="white"/>
        <path d="M29.8665 14.9336H26.6665C25.4883 14.9336 24.5332 15.8887 24.5332 17.0669C24.5332 18.2451 25.4883 19.2003 26.6665 19.2003H27.7332C27.7332 27.8456 27.6511 27.5704 27.9572 28.1816L29.8665 32.0003V54.4003H33.0665V32.0003L31.1572 28.1816C30.8511 27.5704 30.9332 27.8456 30.9332 19.2003H29.8665C28.6883 19.2003 27.7332 18.2451 27.7332 17.0669C27.7332 15.8887 28.6883 14.9336 29.8665 14.9336Z" fill="white"/>
        <path d="M28.7996 37.3335H30.9329V45.8668H28.7996V37.3335Z" fill="white"/>
        <path d="M62.933 53.3333H62.4722C63.1664 52.5773 63.6668 51.664 63.9303 50.672C64.0982 50.0369 63.9597 49.3598 63.5559 48.8416C63.1468 48.3088 62.5125 47.9975 61.8407 48H60.8978C59.2861 47.9988 57.7311 48.5946 56.533 49.6725V45.8667H57.6391C60.5822 45.8828 63.1667 43.9138 63.9325 41.072C64.1003 40.4369 63.9618 39.7598 63.5581 39.2416C63.1485 38.7082 62.5132 38.3969 61.8407 38.4H60.8978C59.2861 38.3988 57.7311 38.9946 56.533 40.0726V34.1334C56.533 33.5443 56.0554 33.0667 55.4663 33.0667C54.8772 33.0667 54.3997 33.5443 54.3997 34.1334V40.0726C53.2015 38.9946 51.6465 38.3988 50.0349 38.4H49.0919C48.4202 38.3976 47.7858 38.7088 47.3767 39.2416C46.9728 39.7601 46.8343 40.4376 47.0023 41.0731C47.7683 43.9137 50.3515 45.882 53.2935 45.8667H54.3997V49.6725C53.2015 48.5946 51.6465 47.9988 50.0349 48H49.0919C48.4202 47.9975 47.7858 48.3088 47.3767 48.8416C46.9728 49.3601 46.8343 50.0376 47.0023 50.6731C47.2662 51.6647 47.7665 52.5775 48.4605 53.3333H35.1997V32.2518L36.9959 28.6603C37.2172 28.2159 37.3326 27.7263 37.333 27.2299V20.2667C39.1003 20.2667 40.533 18.834 40.533 17.0667C40.533 15.2994 39.1003 13.8667 37.333 13.8667H26.6663C24.899 13.8667 23.4663 15.2994 23.4663 17.0667C23.4663 18.834 24.899 20.2667 26.6663 20.2667V27.2299C26.6669 27.7266 26.7822 28.2165 27.0034 28.6614L28.7997 32.2518V37.3334C28.7997 37.9225 29.2772 38.4 29.8663 38.4C30.4554 38.4 30.933 37.9225 30.933 37.3334V33.0667H33.0663V53.3333H30.933V45.8667C30.933 45.2776 30.4554 44.8 29.8663 44.8C29.2772 44.8 28.7997 45.2776 28.7997 45.8667V53.3333H15.5389C16.2331 52.5773 16.7334 51.664 16.997 50.672C17.1649 50.0369 17.0264 49.3598 16.6226 48.8416C16.2135 48.3088 15.5791 47.9975 14.9074 48H13.9645C12.3528 47.9988 10.7978 48.5946 9.59966 49.6725V45.8667H10.7058C13.6489 45.8828 16.2334 43.9138 16.9991 41.072C17.167 40.4369 17.0285 39.7598 16.6247 39.2416C16.2152 38.7082 15.5799 38.3969 14.9074 38.4H13.9645C12.3528 38.3988 10.7978 38.9946 9.59966 40.0726V34.1334C9.59966 33.5443 9.1221 33.0667 8.53299 33.0667C7.94389 33.0667 7.46633 33.5443 7.46633 34.1334V40.0726C6.26819 38.9946 4.7132 38.3988 3.10153 38.4H2.15859C1.48686 38.3976 0.852488 38.7088 0.443393 39.2416C0.0394311 39.7601 -0.0990648 40.4376 0.0689928 41.0731C0.83497 43.9137 3.41819 45.882 6.36019 45.8667H7.46633V49.6725C6.26819 48.5946 4.7132 47.9988 3.10153 48H2.15859C1.48686 47.9975 0.852488 48.3088 0.443393 48.8416C0.0394311 49.3601 -0.0990648 50.0376 0.0689928 50.6731C0.332843 51.6647 0.83318 52.5775 1.52713 53.3333H1.06633C0.477222 53.3333 -0.000340635 53.8109 -0.000340635 54.4C-0.000340635 54.9891 0.477222 55.4667 1.06633 55.4667H18.3463L14.0327 62.368C13.7205 62.8687 13.8733 63.5278 14.3741 63.84C14.8748 64.1522 15.5338 63.9994 15.8461 63.4987L20.8573 55.4667H43.1421L48.1618 63.4987C48.3638 63.8226 48.7232 64.0142 49.1047 64.0012C49.4862 63.9882 49.8319 63.7727 50.0114 63.4359C50.1909 63.099 50.1771 62.6919 49.9751 62.368L45.653 55.4667H62.933C63.5221 55.4667 63.9997 54.9891 63.9997 54.4C63.9997 53.8109 63.5221 53.3333 62.933 53.3333V53.3333ZM25.5997 17.0667C25.5997 16.4776 26.0772 16 26.6663 16H37.333C37.9221 16 38.3997 16.4776 38.3997 17.0667C38.3997 17.6558 37.9221 18.1334 37.333 18.1334H26.6663C26.0772 18.1334 25.5997 17.6558 25.5997 17.0667ZM35.1997 20.2667V23.4667H28.7997V20.2667H35.1997ZM30.5255 30.9334L28.9117 27.7078C28.8382 27.5592 28.7998 27.3957 28.7997 27.2299V25.6H35.1997V27.2299C35.2015 27.3949 35.165 27.5582 35.093 27.7067L33.4738 30.9334H30.5255ZM13.9645 40.5333H14.9074H14.933C14.4128 42.4358 12.6769 43.7495 10.7047 43.7333H9.73833C10.2606 41.8333 11.9939 40.5208 13.9645 40.5333V40.5333ZM6.36019 43.7333C4.39163 43.7562 2.6598 42.4372 2.15859 40.5333H3.10153C5.07205 40.5208 6.80537 41.8333 7.32766 43.7333H6.36019ZM6.36019 53.3333C4.39163 53.3561 2.6598 52.0372 2.15859 50.1333H3.10153C5.07205 50.1208 6.80537 51.4333 7.32766 53.3333H6.36019ZM9.73833 53.3333C10.2606 51.4333 11.9939 50.1208 13.9645 50.1333H14.9074H14.933C14.4128 52.0357 12.6769 53.3495 10.7047 53.3333H9.73833ZM60.8978 40.5333H61.8407H61.8663C61.3461 42.4358 59.6102 43.7495 57.6381 43.7333H56.6717C57.194 41.8333 58.9273 40.5208 60.8978 40.5333V40.5333ZM53.2935 43.7333C51.325 43.7562 49.5931 42.4372 49.0919 40.5333H50.0349C52.0054 40.5208 53.7387 41.8333 54.261 43.7333H53.2935ZM53.2935 53.3333C51.325 53.3561 49.5931 52.0372 49.0919 50.1333H50.0349C52.0054 50.1208 53.7387 51.4333 54.261 53.3333H53.2935ZM56.6717 53.3333C57.194 51.4333 58.9273 50.1208 60.8978 50.1333H61.8407H61.8663C61.3461 52.0357 59.6102 53.3495 57.6381 53.3333H56.6717Z" fill="#67DA96"/>
        <path d="M29.8874 42.6665C29.2983 42.6695 28.8184 42.1943 28.8154 41.6052C28.8125 41.0161 29.2877 40.5361 29.8768 40.5332H29.8874C30.4766 40.5332 30.9541 41.0108 30.9541 41.5999C30.9541 42.189 30.4766 42.6665 29.8874 42.6665V42.6665Z" fill="#67DA96"/>
        <path d="M28.2659 7.53805C27.7295 7.78042 27.4908 8.41149 27.7326 8.94818C27.8798 9.27458 28.0124 9.6088 28.1304 9.95085C28.3242 10.5073 28.9324 10.8012 29.4888 10.6074C30.0452 10.4136 30.3392 9.80539 30.1454 9.24898C30.0031 8.84791 29.8474 8.4568 29.6782 8.07565C29.5626 7.81674 29.3486 7.61451 29.0836 7.51363C28.8187 7.41276 28.5244 7.42154 28.2659 7.53805Z" fill="#67DA96"/>
        <path d="M24.0867 8.63035C23.8296 8.74868 23.6301 8.96432 23.5321 9.22979C23.4341 9.49527 23.4456 9.78881 23.564 10.0458C23.6579 10.2495 23.7411 10.4586 23.8168 10.6719C24.0222 11.2145 24.6234 11.4935 25.1703 11.3C25.7171 11.1065 26.0091 10.5114 25.8275 9.96048C25.7304 9.68528 25.6216 9.41755 25.5011 9.15408C25.2551 8.61895 24.6219 8.3845 24.0867 8.63035V8.63035Z" fill="#67DA96"/>
        <path d="M26.2456 3.36106C25.9 3.04959 25.5395 2.75555 25.164 2.47893C24.6889 2.13018 24.021 2.23262 23.6723 2.70773C23.3235 3.18284 23.426 3.85071 23.9011 4.19946C24.2195 4.43282 24.526 4.68202 24.8195 4.94613C25.1003 5.21584 25.5058 5.3111 25.8773 5.19467C26.2489 5.07823 26.5275 4.7686 26.6041 4.38686C26.6808 4.00512 26.5434 3.61193 26.2456 3.36106V3.36106Z" fill="#67DA96"/>
        <path d="M19.9946 2.32954C20.0833 2.35313 20.1747 2.36496 20.2666 2.36474C20.8027 2.36486 21.2557 1.96694 21.3246 1.43521C21.3936 0.903474 21.0571 0.403211 20.5386 0.266605C20.1599 0.166338 19.7727 0.0831384 19.3802 0.0148717C19.0044 -0.0495314 18.6229 0.0914169 18.3792 0.384623C18.1356 0.677829 18.0668 1.07875 18.1989 1.43636C18.331 1.79397 18.6439 2.05394 19.0196 2.11834C19.3503 2.17487 19.6746 2.24527 19.9946 2.32954Z" fill="#67DA96"/>
        <path d="M18.938 6.6347C19.0233 6.65715 19.1111 6.66862 19.1993 6.66884C19.737 6.6688 20.1907 6.2685 20.2576 5.73494C20.3245 5.20138 19.9838 4.70143 19.4628 4.56857C19.2014 4.50137 18.938 4.44484 18.6681 4.40004C18.087 4.30284 17.537 4.69515 17.4398 5.2763C17.3426 5.85745 17.735 6.40737 18.3161 6.50457C18.5294 6.5387 18.7342 6.58244 18.938 6.6347V6.6347Z" fill="#67DA96"/>
        <path d="M15.1135 2.11834C15.4892 2.05394 15.8021 1.79397 15.9342 1.43636C16.0663 1.07875 15.9976 0.677829 15.7539 0.384623C15.5103 0.0914169 15.1287 -0.0495314 14.753 0.0148717C14.3604 0.0831384 13.9754 0.166338 13.5945 0.266605C13.0761 0.403211 12.7396 0.903474 12.8085 1.43521C12.8774 1.96694 13.3304 2.36486 13.8666 2.36474C13.9587 2.36452 14.0504 2.3527 14.1396 2.32954C14.4586 2.24527 14.7828 2.17487 15.1135 2.11834Z" fill="#67DA96"/>
        <path d="M8.96787 2.47893C8.5924 2.75555 8.23187 3.04959 7.88627 3.36106C7.58849 3.61193 7.45108 4.00512 7.52775 4.38686C7.60443 4.7686 7.88301 5.07823 8.25456 5.19467C8.6261 5.3111 9.03158 5.21584 9.3124 4.94613C9.60584 4.68202 9.91236 4.43282 10.2308 4.19946C10.7059 3.85071 10.8083 3.18284 10.4596 2.70773C10.1109 2.23262 9.44298 2.13018 8.96787 2.47893V2.47893Z" fill="#67DA96"/>
        <path d="M10.7179 6.66545C10.276 7.05544 10.234 7.72976 10.624 8.17159C11.014 8.61342 11.6883 8.65544 12.1301 8.26545C12.3157 8.10119 12.5099 7.94545 12.7104 7.80039C13.0284 7.58118 13.2031 7.20719 13.1671 6.82263C13.131 6.43807 12.8899 6.10303 12.5367 5.94672C12.1835 5.79042 11.7734 5.83726 11.4645 6.06919C11.2057 6.25621 10.9568 6.45496 10.7179 6.66545Z" fill="#67DA96"/>
        <path d="M4.9902 9.48373C5.52746 9.72522 6.15877 9.48549 6.40033 8.94827C6.55465 8.6048 6.72389 8.27093 6.90807 7.94667C7.09575 7.61493 7.0922 7.20827 6.89875 6.87987C6.70531 6.55146 6.35135 6.35121 5.97022 6.35453C5.58909 6.35786 5.23868 6.56427 5.051 6.896C4.83767 7.27787 4.63891 7.66898 4.45473 8.06933C4.33742 8.3278 4.32797 8.62237 4.42847 8.88784C4.52897 9.1533 4.73113 9.36775 4.9902 9.48373Z" fill="#67DA96"/>
        <path d="M3.24722 12.7116C3.21522 13.092 3.19922 13.4771 3.19922 13.8668C3.19922 14.4559 3.67678 14.9334 4.26589 14.9334C4.85499 14.9334 5.33255 14.4559 5.33255 13.8668C5.33255 13.5372 5.34642 13.2108 5.37202 12.8886C5.41719 12.5017 5.2479 12.121 4.93039 11.8954C4.61287 11.6698 4.19763 11.6352 3.84716 11.8051C3.49668 11.9751 3.2667 12.3225 3.24722 12.7116V12.7116Z" fill="#67DA96"/>
        <path d="M7.46655 13.8669C7.46655 14.456 7.94412 14.9335 8.53322 14.9335C9.12232 14.9335 9.59989 14.456 9.59989 13.8669C9.59989 13.6535 9.60842 13.4477 9.62442 13.2429C9.66889 12.8566 9.49963 12.4767 9.18269 12.2514C8.86575 12.0262 8.45135 11.9912 8.10116 12.1602C7.75097 12.3292 7.52048 12.6754 7.49962 13.0637C7.47758 13.3282 7.46655 13.5959 7.46655 13.8669V13.8669Z" fill="#67DA96"/>
        <path d="M38.8259 11.3218C39.3811 11.5181 39.9904 11.2273 40.1869 10.6722C40.2627 10.4588 40.3459 10.2455 40.4397 10.046C40.6121 9.69804 40.5818 9.28387 40.3605 8.96475C40.1392 8.64562 39.762 8.47197 39.3757 8.51138C38.9893 8.5508 38.655 8.79705 38.5027 9.15428C38.3822 9.41775 38.2734 9.68762 38.1763 9.96069C37.98 10.5159 38.2708 11.1252 38.8259 11.3218V11.3218Z" fill="#67DA96"/>
        <path d="M45.0616 6.63456C45.2653 6.5823 45.4701 6.53856 45.6792 6.50443C46.0551 6.44155 46.3689 6.18289 46.5024 5.82587C46.6359 5.46886 46.5689 5.06774 46.3264 4.77361C46.084 4.47947 45.7031 4.33701 45.3272 4.39989C45.0573 4.44469 44.7938 4.50123 44.5325 4.56843C44.0106 4.70147 43.6698 5.20267 43.7379 5.73692C43.806 6.27117 44.2617 6.67083 44.8002 6.6687C44.8884 6.66848 44.9762 6.65701 45.0616 6.63456V6.63456Z" fill="#67DA96"/>
        <path d="M52.5346 6.06919C52.2257 5.83726 51.8156 5.79042 51.4624 5.94672C51.1092 6.10303 50.8681 6.43807 50.8321 6.82263C50.796 7.20719 50.9707 7.58118 51.2887 7.80039C51.4892 7.94652 51.6834 8.10119 51.869 8.26545C52.3108 8.65544 52.9851 8.61342 53.3751 8.17159C53.7651 7.72976 53.723 7.05544 53.2812 6.66545C53.0423 6.45425 52.7934 6.2555 52.5346 6.06919V6.06919Z" fill="#67DA96"/>
        <path d="M56.4995 13.0637C56.4786 12.6754 56.2482 12.3292 55.898 12.1602C55.5478 11.9912 55.1334 12.0262 54.8164 12.2514C54.4995 12.4767 54.3302 12.8566 54.3747 13.2429C54.3907 13.4477 54.3992 13.6567 54.3992 13.8669C54.3992 14.456 54.8768 14.9335 55.4659 14.9335C56.055 14.9335 56.5326 14.456 56.5326 13.8669C56.5326 13.5959 56.5215 13.3282 56.4995 13.0637Z" fill="#67DA96"/>
        <path d="M34.3213 8.07367C34.1492 8.45695 33.9935 8.84806 33.8541 9.247C33.6603 9.80341 33.9542 10.4116 34.5106 10.6054C35.067 10.7992 35.6752 10.5053 35.869 9.94886C35.9871 9.60611 36.1197 9.27189 36.2669 8.9462C36.4997 8.41068 36.2586 7.78756 35.726 7.54814C35.1934 7.30872 34.5674 7.542 34.3213 8.07153V8.07367Z" fill="#67DA96"/>
        <path d="M39.1798 4.94613C39.4733 4.68202 39.7798 4.43282 40.0982 4.19946C40.5733 3.85071 40.6758 3.18284 40.327 2.70773C39.9783 2.23262 39.3104 2.13018 38.8353 2.47893C38.4598 2.75555 38.0993 3.04959 37.7537 3.36106C37.4559 3.61193 37.3185 4.00512 37.3952 4.38686C37.4719 4.7686 37.7504 5.07823 38.122 5.19467C38.4935 5.3111 38.899 5.21584 39.1798 4.94613Z" fill="#67DA96"/>
        <path d="M43.7328 2.36502C43.8249 2.36481 43.9166 2.35298 44.0058 2.32982C44.3258 2.24555 44.6458 2.17515 44.9807 2.11649C45.5446 2.00057 45.9148 1.45812 45.8172 0.890774C45.7196 0.323431 45.1894 -0.0640852 44.6192 0.0151548C44.2266 0.0834215 43.8416 0.166621 43.4608 0.266888C42.9423 0.403494 42.6058 0.903757 42.6747 1.43549C42.7436 1.96722 43.1966 2.36514 43.7328 2.36502V2.36502Z" fill="#67DA96"/>
        <path d="M50.1334 2.36489C50.6696 2.36501 51.1225 1.96709 51.1915 1.43536C51.2604 0.903624 50.9239 0.403361 50.4054 0.266754C50.0268 0.166488 49.6396 0.0832878 49.247 0.0150211C48.6662 -0.0845374 48.1146 0.305631 48.015 0.886488C47.9155 1.46734 48.3056 2.01893 48.8865 2.11849C49.2172 2.17502 49.5414 2.24542 49.8614 2.33182C49.9503 2.35469 50.0417 2.36581 50.1334 2.36489V2.36489Z" fill="#67DA96"/>
        <path d="M55.0315 2.47893C54.5563 2.13018 53.8885 2.23262 53.5397 2.70773C53.191 3.18284 53.2934 3.85071 53.7685 4.19946C54.087 4.43282 54.3935 4.68202 54.6869 4.94613C54.9677 5.21584 55.3732 5.3111 55.7448 5.19467C56.1163 5.07823 56.3949 4.7686 56.4716 4.38686C56.5482 4.00512 56.4108 3.61193 56.1131 3.36106C55.7675 3.04959 55.4069 2.75555 55.0315 2.47893V2.47893Z" fill="#67DA96"/>
        <path d="M58.9487 6.89619C58.6586 6.38337 58.0076 6.20285 57.4948 6.49299C56.982 6.78312 56.8015 7.43404 57.0916 7.94685C57.2751 8.27112 57.4443 8.60499 57.5994 8.94845C57.7558 9.296 58.0858 9.53369 58.465 9.57199C58.8442 9.61029 59.215 9.44337 59.4378 9.13412C59.6605 8.82487 59.7014 8.42027 59.545 8.07272C59.3636 7.66881 59.1649 7.27663 58.9487 6.89619Z" fill="#67DA96"/>
        <path d="M60.7519 12.7116C60.7324 12.3225 60.5024 11.9751 60.1519 11.8051C59.8015 11.6352 59.3862 11.6698 59.0687 11.8954C58.7512 12.121 58.5819 12.5017 58.6271 12.8886C58.6527 13.2086 58.6666 13.5372 58.6666 13.8668C58.6666 14.4559 59.1441 14.9334 59.7332 14.9334C60.3223 14.9334 60.7999 14.4559 60.7999 13.8668C60.7999 13.4778 60.7839 13.0927 60.7519 12.7116V12.7116Z" fill="#67DA96"/>
        <path d="M20.1665 13.0669C20.288 13.5374 20.7121 13.8663 21.198 13.8669C21.2883 13.867 21.3783 13.8556 21.4657 13.8328C22.0359 13.6854 22.3787 13.1038 22.2316 12.5336C22.111 12.0665 21.9276 11.618 21.6865 11.2002C21.39 10.6944 20.7407 10.5228 20.233 10.8159C19.7252 11.1091 19.5492 11.7572 19.839 12.2669C19.9834 12.5178 20.0935 12.7868 20.1665 13.0669V13.0669Z" fill="#67DA96"/>
        <path d="M16.0002 10.8009C16.0901 10.8009 16.1797 10.7898 16.2669 10.7679C16.5282 10.7006 16.797 10.6665 17.0669 10.6665C17.656 10.6665 18.1335 10.189 18.1335 9.59987C18.1335 9.01076 17.656 8.5332 17.0669 8.5332C16.6175 8.53322 16.17 8.58948 15.7346 8.70067C15.2131 8.83362 14.8724 9.3342 14.9399 9.86809C15.0074 10.402 15.4621 10.802 16.0002 10.8009Z" fill="#67DA96"/>
        <path d="M13.9724 13.0658C14.1197 12.495 13.7763 11.9128 13.2055 11.7655C12.6346 11.6183 12.0525 11.9616 11.9052 12.5325C11.7922 12.9683 11.7341 13.4166 11.7324 13.8669C11.7324 14.456 12.21 14.9336 12.7991 14.9336C13.3882 14.9336 13.8658 14.456 13.8658 13.8669C13.8674 13.5964 13.9032 13.3273 13.9724 13.0658Z" fill="#67DA96"/>
        <path d="M42.3128 11.2002C42.0717 11.618 41.8883 12.0665 41.7677 12.5336C41.6206 13.1038 41.9634 13.6854 42.5336 13.8328C42.621 13.8556 42.711 13.867 42.8013 13.8669C43.2872 13.8663 43.7113 13.5374 43.8328 13.0669C43.9058 12.7868 44.0159 12.5178 44.1602 12.2669C44.45 11.7572 44.2741 11.1091 43.7663 10.8159C43.2585 10.5228 42.6093 10.6944 42.3128 11.2002V11.2002Z" fill="#67DA96"/>
        <path d="M46.9329 10.6665C47.2033 10.6682 47.4725 10.704 47.7339 10.7732C47.8211 10.7952 47.9107 10.8063 48.0006 10.8063C48.5386 10.8068 48.9927 10.4066 49.0599 9.8729C49.1272 9.33917 48.7864 8.83891 48.2652 8.706C47.83 8.59301 47.3824 8.53496 46.9329 8.5332C46.3438 8.5332 45.8662 9.01077 45.8662 9.59987C45.8662 10.189 46.3438 10.6665 46.9329 10.6665Z" fill="#67DA96"/>
        <path d="M52.0986 12.5347C52.0034 12.1654 51.7183 11.875 51.3509 11.7729C50.9835 11.6708 50.5894 11.7724 50.3173 12.0396C50.0451 12.3067 49.9362 12.6988 50.0314 13.068C50.0986 13.329 50.1327 13.5974 50.1328 13.867C50.1328 14.4561 50.6103 14.9336 51.1994 14.9336C51.7885 14.9336 52.2661 14.4561 52.2661 13.867C52.266 13.4176 52.2097 12.9701 52.0986 12.5347V12.5347Z" fill="#67DA96"/>
        <path d="M3.19922 19.2002C3.19922 19.7893 3.67678 20.2669 4.26589 20.2669C4.85499 20.2669 5.33255 19.7893 5.33255 19.2002V18.1336C5.33255 17.5445 4.85499 17.0669 4.26589 17.0669C3.67678 17.0669 3.19922 17.5445 3.19922 18.1336V19.2002Z" fill="#67DA96"/>
        <path d="M7.46655 19.2002C7.46655 19.7893 7.94412 20.2669 8.53322 20.2669C9.12232 20.2669 9.59989 19.7893 9.59989 19.2002V18.1336C9.59989 17.5445 9.12232 17.0669 8.53322 17.0669C7.94412 17.0669 7.46655 17.5445 7.46655 18.1336V19.2002Z" fill="#67DA96"/>
        <path d="M13.8658 18.1336C13.8658 17.5445 13.3882 17.0669 12.7991 17.0669C12.21 17.0669 11.7324 17.5445 11.7324 18.1336V19.2002C11.7324 19.7893 12.21 20.2669 12.7991 20.2669C13.3882 20.2669 13.8658 19.7893 13.8658 19.2002V18.1336Z" fill="#67DA96"/>
        <path d="M52.2666 18.1336C52.2666 17.5445 51.7891 17.0669 51.2 17.0669C50.6109 17.0669 50.1333 17.5445 50.1333 18.1336V19.2002C50.1333 19.7893 50.6109 20.2669 51.2 20.2669C51.7891 20.2669 52.2666 19.7893 52.2666 19.2002V18.1336Z" fill="#67DA96"/>
        <path d="M56.5332 18.1336C56.5332 17.5445 56.0557 17.0669 55.4666 17.0669C54.8775 17.0669 54.3999 17.5445 54.3999 18.1336V19.2002C54.3999 19.7893 54.8775 20.2669 55.4666 20.2669C56.0557 20.2669 56.5332 19.7893 56.5332 19.2002V18.1336Z" fill="#67DA96"/>
        <path d="M60.7991 18.1336C60.7991 17.5445 60.3215 17.0669 59.7324 17.0669C59.1433 17.0669 58.6658 17.5445 58.6658 18.1336V19.2002C58.6658 19.7893 59.1433 20.2669 59.7324 20.2669C60.3215 20.2669 60.7991 19.7893 60.7991 19.2002V18.1336Z" fill="#67DA96"/>
        <path d="M3.19922 24.5332C3.19922 25.1223 3.67678 25.5999 4.26589 25.5999C4.85499 25.5999 5.33255 25.1223 5.33255 24.5332V23.4666C5.33255 22.8775 4.85499 22.3999 4.26589 22.3999C3.67678 22.3999 3.19922 22.8775 3.19922 23.4666V24.5332Z" fill="#67DA96"/>
        <path d="M7.46655 24.5332C7.46655 25.1223 7.94412 25.5999 8.53322 25.5999C9.12232 25.5999 9.59989 25.1223 9.59989 24.5332V23.4666C9.59989 22.8775 9.12232 22.3999 8.53322 22.3999C7.94412 22.3999 7.46655 22.8775 7.46655 23.4666V24.5332Z" fill="#67DA96"/>
        <path d="M13.8658 23.4666C13.8658 22.8775 13.3882 22.3999 12.7991 22.3999C12.21 22.3999 11.7324 22.8775 11.7324 23.4666V24.5332C11.7324 25.1223 12.21 25.5999 12.7991 25.5999C13.3882 25.5999 13.8658 25.1223 13.8658 24.5332V23.4666Z" fill="#67DA96"/>
        <path d="M52.2666 23.4666C52.2666 22.8775 51.7891 22.3999 51.2 22.3999C50.6109 22.3999 50.1333 22.8775 50.1333 23.4666V24.5332C50.1333 25.1223 50.6109 25.5999 51.2 25.5999C51.7891 25.5999 52.2666 25.1223 52.2666 24.5332V23.4666Z" fill="#67DA96"/>
        <path d="M56.5332 23.4666C56.5332 22.8775 56.0557 22.3999 55.4666 22.3999C54.8775 22.3999 54.3999 22.8775 54.3999 23.4666V24.5332C54.3999 25.1223 54.8775 25.5999 55.4666 25.5999C56.0557 25.5999 56.5332 25.1223 56.5332 24.5332V23.4666Z" fill="#67DA96"/>
        <path d="M60.7991 23.4666C60.7991 22.8775 60.3215 22.3999 59.7324 22.3999C59.1433 22.3999 58.6658 22.8775 58.6658 23.4666V24.5332C58.6658 25.1223 59.1433 25.5999 59.7324 25.5999C60.3215 25.5999 60.7991 25.1223 60.7991 24.5332V23.4666Z" fill="#67DA96"/>
        <path d="M3.19922 29.8667C3.19922 30.4558 3.67678 30.9334 4.26589 30.9334C4.85499 30.9334 5.33255 30.4558 5.33255 29.8667V28.8001C5.33255 28.211 4.85499 27.7334 4.26589 27.7334C3.67678 27.7334 3.19922 28.211 3.19922 28.8001V29.8667Z" fill="#67DA96"/>
        <path d="M7.46655 29.8667C7.46655 30.4558 7.94412 30.9334 8.53322 30.9334C9.12232 30.9334 9.59989 30.4558 9.59989 29.8667V28.8001C9.59989 28.211 9.12232 27.7334 8.53322 27.7334C7.94412 27.7334 7.46655 28.211 7.46655 28.8001V29.8667Z" fill="#67DA96"/>
        <path d="M12.7991 27.7334C12.21 27.7334 11.7324 28.211 11.7324 28.8001V29.8667C11.7324 30.4558 12.21 30.9334 12.7991 30.9334C13.3882 30.9334 13.8658 30.4558 13.8658 29.8667V28.8001C13.8658 28.211 13.3882 27.7334 12.7991 27.7334Z" fill="#67DA96"/>
        <path d="M51.2 27.7334C50.6109 27.7334 50.1333 28.211 50.1333 28.8001V29.8667C50.1333 30.4558 50.6109 30.9334 51.2 30.9334C51.7891 30.9334 52.2666 30.4558 52.2666 29.8667V28.8001C52.2666 28.211 51.7891 27.7334 51.2 27.7334Z" fill="#67DA96"/>
        <path d="M55.4666 27.7334C54.8775 27.7334 54.3999 28.211 54.3999 28.8001V29.8667C54.3999 30.4558 54.8775 30.9334 55.4666 30.9334C56.0557 30.9334 56.5332 30.4558 56.5332 29.8667V28.8001C56.5332 28.211 56.0557 27.7334 55.4666 27.7334Z" fill="#67DA96"/>
        <path d="M59.7324 27.7334C59.1433 27.7334 58.6658 28.211 58.6658 28.8001V29.8667C58.6658 30.4558 59.1433 30.9334 59.7324 30.9334C60.3215 30.9334 60.7991 30.4558 60.7991 29.8667V28.8001C60.7991 28.211 60.3215 27.7334 59.7324 27.7334Z" fill="#67DA96"/>
    </g>
    <defs>
        <clipPath id="clip0_378:1211">
            <rect width="64" height="64" fill="white"/>
        </clipPath>
    </defs>
</svg>
