<svg width="64" height="64" viewBox="0 0 64 64" fill="none" xmlns="http://www.w3.org/2000/svg">
<path d="M57.1999 44.6H49.9999V46.4H57.1999V44.6Z" fill="url(#paint0_linear)"/>
<path d="M5 39.2C4.99706 35.9736 7.14298 33.1399 10.2494 32.2682C13.3559 31.3965 16.6628 32.7 18.3389 35.4569L20.1326 34.6469L9.0122 17.6001H8.6C7.10883 17.6001 5.9 16.3912 5.9 14.9001C5.9 13.4089 7.10883 12.2001 8.6 12.2001H9.73219C10.5641 9.02994 13.4226 6.81461 16.7 6.80007C16.8944 6.80007 17.0933 6.80997 17.3057 6.82977C19.6849 4.70202 23.1824 4.39849 25.8926 6.08457C27.1665 5.78933 28.497 5.84942 29.7392 6.25827C30.9328 5.43454 32.3497 4.99551 33.7999 5.00007C36.0307 5.00086 38.1351 6.03561 39.4978 7.80177C41.9606 8.21593 44.03 9.88235 44.9599 12.2001H46.3999C47.8911 12.2001 49.0999 13.4089 49.0999 14.9001C49.0999 16.3912 47.8911 17.6001 46.3999 17.6001V22.8578L48.217 22.0415C48.1136 20.9027 48.748 19.8247 49.7938 19.3623L55.1938 16.9386C56.0779 16.5149 57.1222 16.6038 57.9219 17.1708C58.7217 17.7377 59.1514 18.6936 59.0444 19.6681C58.9374 20.6426 58.3106 21.4825 57.4069 21.8624L52.0069 24.2924C50.9638 24.7632 49.737 24.5207 48.9514 23.6885L45.8653 25.0745L45.8374 25.0871L43.6999 26.042V37.4C43.7094 38.4799 43.0665 39.459 42.0718 39.8795C41.7284 40.0297 41.3577 40.1075 40.9828 40.1081C40.3052 40.1068 39.6538 39.8463 39.1621 39.38L30.83 31.82L19.0823 37.0949C19.9131 39.7989 19.0766 42.7386 16.9466 44.6L49.9999 44.6C50.497 44.6 50.8999 45.003 50.8999 45.5C50.8999 45.9971 50.497 46.4 49.9999 46.4L6.8 46.4V48.2H14C14.497 48.2 14.9 48.603 14.9 49.1C14.9 49.5971 14.497 50 14 50H6.8V52.7H28.4C28.897 52.7 29.3 53.103 29.3 53.6C29.3 54.0971 28.897 54.5 28.4 54.5H6.8V57.2H57.1999V54.5H49.9999C49.5029 54.5 49.0999 54.0971 49.0999 53.6C49.0999 53.103 49.5029 52.7 49.9999 52.7H57.1999V50H35.5999C35.1029 50 34.6999 49.5971 34.6999 49.1C34.6999 48.603 35.1029 48.2 35.5999 48.2H57.1999L57.1999 46.4C56.7028 46.4 56.2999 45.9971 56.2999 45.5C56.2999 45.003 56.7028 44.6 57.1999 44.6C58.194 44.6 58.9999 45.4059 58.9999 46.4V57.2C58.9999 58.1941 58.194 59 57.1999 59H6.8C5.80589 59 5 58.1941 5 57.2V46.4C5 45.4059 5.80589 44.6 6.8 44.6H7.4534C5.89544 43.2378 5.00117 41.2695 5 39.2ZM38.8975 9.53517H38.8876C38.1715 9.45985 37.4475 9.52527 36.7564 9.72777C36.6729 9.75057 36.5866 9.76177 36.4999 9.76107C36.0524 9.76178 35.6723 9.43353 35.6079 8.99064C35.5435 8.54775 35.8142 8.12481 36.2434 7.99797C36.4776 7.9287 36.7153 7.87163 36.9553 7.82697C36.0378 7.1611 34.9336 6.80173 33.7999 6.80007C33.0686 6.80275 32.3456 6.95593 31.676 7.25007C32.0372 7.55972 32.0925 8.09809 31.8017 8.47471C31.511 8.85132 30.9762 8.93413 30.5852 8.66307C30.2643 8.44016 29.9203 8.25247 29.5592 8.10327H29.5439C28.4117 7.63876 27.1548 7.57525 25.9817 7.92327H25.9664C25.5287 8.05263 25.1092 8.23711 24.7181 8.47227C24.5782 8.55658 24.4179 8.60079 24.2546 8.60007C23.9387 8.6007 23.6457 8.43573 23.4824 8.16537C23.263 7.79412 23.3419 7.31894 23.6696 7.03857C22.314 6.61968 20.8475 6.75629 19.5926 7.41837C19.6556 7.44627 19.7231 7.46337 19.7861 7.49397C20.0843 7.62715 20.2869 7.91141 20.3156 8.23672C20.3442 8.56203 20.1944 8.87734 19.9241 9.06062C19.6539 9.2439 19.3055 9.26638 19.0139 9.11937C18.5379 8.89382 18.0311 8.74006 17.51 8.66307H17.4839C14.9287 8.2628 12.4547 9.75382 11.615 12.2001H42.9637C42.1108 10.7142 40.6003 9.72425 38.8975 9.53517ZM47.2999 14.9001C47.2999 14.403 46.897 14.0001 46.3999 14.0001H8.6C8.10294 14.0001 7.7 14.403 7.7 14.9001C7.7 15.3971 8.10294 15.8001 8.6 15.8001H46.3999C46.897 15.8001 47.2999 15.3971 47.2999 14.9001ZM44.5999 17.6001H11.1614L21.794 33.9053L30.6203 29.9453H30.6248L42.4354 24.638L42.4624 24.6254L44.5999 23.666V17.6001ZM51.2689 22.6454L56.6689 20.2209C57.0021 20.072 57.2124 19.7367 57.2013 19.3719C57.1903 19.0072 56.9601 18.6852 56.6185 18.5568C56.5165 18.5191 56.4086 18.4999 56.2999 18.5001C56.172 18.5001 56.0456 18.5274 55.9291 18.5802L50.5291 21.0048C50.0831 21.2091 49.8829 21.7331 50.0791 22.1828L50.0854 22.1918V22.2027C50.2957 22.6455 50.8196 22.8415 51.2689 22.6454ZM40.3789 38.057C40.6403 38.3062 41.0253 38.375 41.3568 38.2318C41.6884 38.0886 41.9022 37.7611 41.8999 37.4L41.9 26.8502L32.6237 31.0154L40.3789 38.057ZM17.6 39.2C17.5982 38.7415 17.5378 38.2851 17.42 37.8419L15.7388 38.597C15.7765 38.7959 15.797 38.9976 15.8 39.2C15.8239 40.9787 14.5597 42.5146 12.8096 42.8332C11.0595 43.1518 9.33517 42.1599 8.73071 40.4869C8.12624 38.8139 8.81837 36.9489 10.368 36.0753C11.9175 35.2017 13.8715 35.5749 14.99 36.9581L16.682 36.1994C15.1894 33.9783 12.2952 33.1854 9.87897 34.3356C7.46275 35.4859 6.25338 38.2322 7.03627 40.7912C7.81915 43.3501 10.3581 44.9497 13.0043 44.5511C15.6505 44.1525 17.6056 41.8761 17.6 39.2ZM13.1792 38.7599C13.0371 38.4409 13.0937 38.0684 13.3241 37.8059C13.0074 37.545 12.6103 37.4016 12.2 37.4C11.2167 37.3963 10.4124 38.1824 10.3936 39.1655C10.3747 40.1486 11.1483 40.9649 12.131 40.9989C13.1137 41.0329 13.9418 40.2721 13.991 39.29C13.6402 39.2866 13.3234 39.0797 13.1792 38.7599Z" fill="url(#paint1_linear)"/>
<path d="M22.5064 30.0542C22.3063 30.1846 22.0627 30.2301 21.8291 30.1809C21.5955 30.1316 21.3911 29.9915 21.2608 29.7914L15.9787 21.6914C15.7073 21.2749 15.8249 20.7172 16.2415 20.4458C16.658 20.1744 17.2157 20.2921 17.4871 20.7086L22.7692 28.8086C22.8995 29.0086 22.9451 29.2523 22.8958 29.4859C22.8465 29.7195 22.7064 29.9239 22.5064 30.0542Z" fill="url(#paint2_linear)"/>
<path d="M53.5816 46.4C54.0787 46.4025 54.4836 46.0016 54.4861 45.5045C54.4886 45.0075 54.0877 44.6025 53.5906 44.6H53.5816C53.0845 44.6 52.6816 45.003 52.6816 45.5C52.6816 45.9971 53.0845 46.4 53.5816 46.4Z" fill="url(#paint3_linear)"/>
<path d="M17.6001 49.9999C17.103 49.9999 16.7001 49.5969 16.7001 49.0999C16.7001 48.6028 17.103 48.1999 17.6001 48.1999H32C32.4971 48.1999 32.9 48.6028 32.9 49.0999C32.9 49.5969 32.4971 49.9999 32 49.9999H17.6001Z" fill="url(#paint4_linear)"/>
<path d="M47.3003 53.6C47.3003 54.097 46.8973 54.5 46.4003 54.5H32.0003C31.5033 54.5 31.1003 54.097 31.1003 53.6C31.1003 53.1029 31.5033 52.7 32.0003 52.7H46.4003C46.8973 52.7 47.3003 53.1029 47.3003 53.6Z" fill="url(#paint5_linear)"/>
<defs>
<linearGradient id="paint0_linear" x1="0.200026" y1="4.93425" x2="55.1003" y2="70.3046" gradientUnits="userSpaceOnUse">
<stop stop-color="#67DA96"/>
<stop offset="1" stop-color="#48AD4C"/>
</linearGradient>
<linearGradient id="paint1_linear" x1="0.200026" y1="4.93425" x2="55.1003" y2="70.3046" gradientUnits="userSpaceOnUse">
<stop stop-color="#67DA96"/>
<stop offset="1" stop-color="#48AD4C"/>
</linearGradient>
<linearGradient id="paint2_linear" x1="0.200026" y1="4.93425" x2="55.1003" y2="70.3046" gradientUnits="userSpaceOnUse">
<stop stop-color="#67DA96"/>
<stop offset="1" stop-color="#48AD4C"/>
</linearGradient>
<linearGradient id="paint3_linear" x1="0.200026" y1="4.93425" x2="55.1003" y2="70.3046" gradientUnits="userSpaceOnUse">
<stop stop-color="#67DA96"/>
<stop offset="1" stop-color="#48AD4C"/>
</linearGradient>
<linearGradient id="paint4_linear" x1="0.200026" y1="4.93425" x2="55.1003" y2="70.3046" gradientUnits="userSpaceOnUse">
<stop stop-color="#67DA96"/>
<stop offset="1" stop-color="#48AD4C"/>
</linearGradient>
<linearGradient id="paint5_linear" x1="0.200026" y1="4.93425" x2="55.1003" y2="70.3046" gradientUnits="userSpaceOnUse">
<stop stop-color="#67DA96"/>
<stop offset="1" stop-color="#48AD4C"/>
</linearGradient>
</defs>
</svg>
