<svg width="64" height="64" viewBox="0 0 64 64" fill="none" xmlns="http://www.w3.org/2000/svg">
<path d="M5.27077 32.6242L8.30202 26.0936L9.93465 26.8514L6.9034 33.382L5.27077 32.6242Z" fill="url(#paint0_linear)"/>
<path d="M16.9652 36.8598C17.0302 36.8747 17.0966 36.8822 17.1632 36.8823C17.5838 36.8821 17.9482 36.5906 18.0407 36.1803C18.6541 33.4897 19.6046 30.8873 20.8695 28.4347C21.0961 27.9921 20.9211 27.4495 20.4784 27.2228C20.0358 26.9962 19.4932 27.1713 19.2665 27.6139C17.9341 30.1999 16.9326 32.9435 16.2857 35.7797C16.232 36.0131 16.2734 36.2583 16.401 36.461C16.5285 36.6637 16.7316 36.8072 16.9652 36.8598Z" fill="url(#paint1_linear)"/>
<path d="M7.61945 30.6495C7.12239 30.652 6.71742 30.2511 6.71494 29.754C6.71245 29.2569 7.11339 28.852 7.61045 28.8495H7.61945C8.11652 28.8495 8.51947 29.2524 8.51947 29.7495C8.51947 30.2466 8.11652 30.6495 7.61945 30.6495Z" fill="url(#paint2_linear)"/>
<path d="M57.1964 53.5999H44.9562C45.9068 51.9595 46.4038 50.0957 46.3962 48.1998C46.3962 42.235 41.5608 37.3996 35.596 37.3996C29.6312 37.3996 24.7958 42.235 24.7958 48.1998C24.7896 50.0961 25.2882 51.9599 26.2404 53.5999H16.5787C16.0333 53.6012 15.5214 53.3369 15.2067 52.8914C14.892 52.446 14.8139 51.8752 14.9974 51.3616L17.5309 44.1911C18.0043 43.8869 18.3599 43.4304 18.5389 42.8969L19.2148 40.8863C19.4888 40.8143 19.7528 40.7085 20.0005 40.5713C20.8576 40.0988 21.4641 39.2739 21.6593 38.3149C23.3021 30.9298 26.356 23.9315 30.6531 17.7046C30.8299 17.7968 30.9769 17.9372 31.077 18.1096C32.2131 20.0221 34.2716 21.1958 36.496 21.1993H38.4617C38.898 22.4383 40.1644 23.1818 41.4589 22.9592C42.7534 22.7366 43.6987 21.6128 43.6962 20.2993V7.69911C43.6987 6.38559 42.7534 5.26179 41.4589 5.03921C40.1644 4.81663 38.898 5.56018 38.4617 6.79909H36.496C34.2714 6.8028 32.2128 7.97688 31.077 9.88974C30.9169 10.1916 30.6084 10.3855 30.267 10.3992H23.8958C22.9017 10.3992 22.0958 11.2051 22.0958 12.1992H20.2958C20.2958 11.2345 19.7811 10.3432 18.9457 9.86087C18.1103 9.37856 17.0811 9.37856 16.2457 9.86087C15.4103 10.3432 14.8957 11.2345 14.8957 12.1992H12.1956C11.6985 12.1992 11.2956 12.6021 11.2956 13.0992C11.2956 13.5963 11.6985 13.9992 12.1956 13.9992H14.8957V14.442C14.8933 15.0146 14.6109 15.5497 14.1396 15.8748C13.6815 16.2243 13.0878 16.3432 12.5304 16.1971C12.0943 16.0481 11.6114 16.1788 11.31 16.5274C11.0021 16.8831 10.9409 17.3901 11.1552 17.809C11.2838 18.0723 11.2762 18.3818 11.1347 18.6385C10.9932 18.8952 10.7355 19.0669 10.4442 19.0987C9.99188 19.1482 9.60261 19.4405 9.42896 19.861C9.26719 20.2513 9.32842 20.6986 9.58917 21.031C10.0296 21.6049 10.088 22.3853 9.73767 23.0183C9.72687 23.0363 9.72777 23.057 9.71877 23.0759H9.70977L8.30214 26.1017C8.15717 26.3946 8.18234 26.743 8.36788 27.012C8.55343 27.281 8.8702 27.4283 9.19546 27.3968C9.52072 27.3653 9.80336 27.16 9.93387 26.8604L11.3424 23.8292C11.8629 22.8494 11.9047 21.6848 11.4558 20.6701C11.9895 20.4344 12.4306 20.0292 12.7104 19.5172C12.9589 19.0752 13.0769 18.5718 13.0506 18.0655C13.8232 18.044 14.5713 17.7899 15.1972 17.3365C16.1376 16.6727 16.6965 15.5931 16.6957 14.442V12.1992C16.6913 11.9607 16.7835 11.7306 16.9513 11.5611C17.1191 11.3917 17.3482 11.2972 17.5867 11.2992C18.0885 11.2997 18.4952 11.7064 18.4957 12.2082V16.6435C18.494 17.642 19.0447 18.5595 19.9267 19.0276L20.3597 19.258C19.4134 20.4505 18.5366 21.6963 17.7334 22.9895L17.1088 22.6655C16.4632 22.3311 15.7101 22.2713 15.0198 22.4995C14.3295 22.7277 13.7604 23.2246 13.4412 23.8778L8.50555 34.2073C8.39479 34.4256 8.19985 34.5895 7.96566 34.661C7.73147 34.7325 7.47826 34.7055 7.26443 34.5862C6.84444 34.3611 6.6778 33.8441 6.88732 33.4162C7.03201 33.1287 7.01236 32.7859 6.83576 32.5168C6.65916 32.2478 6.35244 32.0934 6.03114 32.1118C5.70985 32.1302 5.42279 32.3187 5.27809 32.6061C4.61948 33.9447 5.17072 35.5638 6.50931 36.2224C7.84791 36.881 9.46696 36.3298 10.1256 34.9912L15.0604 24.6644C15.577 23.6186 16.7263 24.5357 16.8163 24.5411C14.8168 28.0743 13.3891 31.9017 12.5862 35.8813C12.4071 36.7909 12.5927 37.7344 13.1028 38.5084L12.3234 40.8197C12.1367 41.3804 12.1591 41.9897 12.3864 42.5351L9.90417 49.5624C9.13904 51.7284 9.47239 54.131 10.7983 56.0068C12.1243 57.8827 14.2779 58.9986 16.5751 59H57.1964C58.1905 59 58.9964 58.1941 58.9964 57.2V55.3999C58.9964 54.4058 58.1905 53.5999 57.1964 53.5999ZM14.0298 41.3948L14.5699 39.7847C15.0568 40.0178 16.9648 40.718 17.3311 40.8332L16.8298 42.3263C16.7744 42.5 16.6517 42.6443 16.4892 42.727C16.3267 42.8097 16.1379 42.8239 15.9649 42.7664L14.4691 42.2597C14.2957 42.2039 14.1517 42.0812 14.0693 41.9187C13.9868 41.7563 13.9726 41.5677 14.0298 41.3948ZM40.9961 6.79909C41.4932 6.79909 41.8961 7.20204 41.8961 7.69911V20.2993C41.8961 20.7964 41.4932 21.1993 40.9961 21.1993C40.4991 21.1993 40.0961 20.7964 40.0961 20.2993V7.69911C40.0961 7.20204 40.4991 6.79909 40.9961 6.79909ZM23.8958 12.1992H30.267C31.2462 12.1886 32.1454 11.6565 32.626 10.8033C33.4377 9.43813 34.9078 8.60083 36.496 8.59912H38.2961V10.3992H36.496C35.999 10.3992 35.596 10.8021 35.596 11.2992C35.596 11.7962 35.999 12.1992 36.496 12.1992H38.2961V15.7992H36.496C35.999 15.7992 35.596 16.2022 35.596 16.6993C35.596 17.1963 35.999 17.5993 36.496 17.5993H38.2961V19.3993H36.496C34.9078 19.3976 33.4377 18.5603 32.626 17.1952C32.133 16.3542 31.2415 15.8266 30.267 15.7992H23.8958V12.1992ZM20.7719 17.4382C20.4785 17.2816 20.2955 16.976 20.2958 16.6435V13.9992H22.0958V15.7992C22.0968 16.1817 22.2208 16.5538 22.4495 16.8604C22.1939 17.125 21.8852 17.4616 21.5432 17.8504L20.7719 17.4382ZM14.3556 36.2296C15.8145 29.2035 19.2492 22.74 24.2558 17.5993H28.5345C24.4098 23.7871 21.4793 30.692 19.8943 37.9576C19.7959 38.4082 19.5057 38.7934 19.0998 39.0123C18.6939 39.2313 18.2126 39.2622 17.782 39.0971L15.4924 38.2384C14.6775 37.9318 14.1989 37.086 14.3556 36.2296ZM12.2694 54.9688C11.2764 53.5723 11.0268 51.7792 11.6007 50.1645L13.8039 43.9256C14.109 44.0408 15.1882 44.4107 15.514 44.5016L13.3017 50.7577C12.9224 51.8224 13.0845 53.0051 13.7364 53.9286C14.3882 54.852 15.4484 55.4008 16.5787 55.3999H35.596C39.0889 55.4122 42.0905 52.924 42.726 49.4894C43.3616 46.0548 41.4493 42.6573 38.1833 41.4188C34.9173 40.1803 31.233 41.4554 29.4313 44.4478C27.6297 47.4402 28.2266 51.293 30.8493 53.5999H28.4022C27.2256 52.0459 26.5911 50.149 26.5959 48.1998C26.5959 43.2292 30.6254 39.1997 35.596 39.1997C40.5667 39.1997 44.5962 43.2292 44.5962 48.1998C44.5983 50.5875 43.6508 52.8779 41.9625 54.5663C40.2741 56.2546 37.9837 57.2021 35.596 57.2H16.5751C14.8624 57.201 13.2562 56.3687 12.2694 54.9688ZM30.1959 48.1998C30.1959 45.2174 32.6136 42.7997 35.596 42.7997C38.5784 42.7997 40.9961 45.2174 40.9961 48.1998C40.9961 51.1822 38.5784 53.5999 35.596 53.5999C32.6149 53.5969 30.1989 51.181 30.1959 48.1998ZM57.1964 57.2H41.5451C42.3134 56.6911 43.0136 56.0862 43.6287 55.3999H57.1964V57.2Z" fill="url(#paint3_linear)"/>
<path d="M16.6953 20.2993C17.1923 20.2993 17.5953 19.8963 17.5953 19.3993C17.5953 18.9022 17.1923 18.4992 16.6953 18.4992C16.1982 18.4992 15.7952 18.9022 15.7952 19.3993C15.7952 19.8963 16.1982 20.2993 16.6953 20.2993Z" fill="url(#paint4_linear)"/>
<defs>
<linearGradient id="paint0_linear" x1="0.205719" y1="4.93425" x2="55.1172" y2="70.2405" gradientUnits="userSpaceOnUse">
<stop stop-color="#67DA96"/>
<stop offset="1" stop-color="#48AD4C"/>
</linearGradient>
<linearGradient id="paint1_linear" x1="0.205719" y1="4.93425" x2="55.1172" y2="70.2405" gradientUnits="userSpaceOnUse">
<stop stop-color="#67DA96"/>
<stop offset="1" stop-color="#48AD4C"/>
</linearGradient>
<linearGradient id="paint2_linear" x1="0.205719" y1="4.93425" x2="55.1172" y2="70.2405" gradientUnits="userSpaceOnUse">
<stop stop-color="#67DA96"/>
<stop offset="1" stop-color="#48AD4C"/>
</linearGradient>
<linearGradient id="paint3_linear" x1="0.205719" y1="4.93425" x2="55.1172" y2="70.2405" gradientUnits="userSpaceOnUse">
<stop stop-color="#67DA96"/>
<stop offset="1" stop-color="#48AD4C"/>
</linearGradient>
<linearGradient id="paint4_linear" x1="0.205719" y1="4.93425" x2="55.1172" y2="70.2405" gradientUnits="userSpaceOnUse">
<stop stop-color="#67DA96"/>
<stop offset="1" stop-color="#48AD4C"/>
</linearGradient>
</defs>
</svg>
