<svg width="64" height="64" viewBox="0 0 64 64" fill="none" xmlns="http://www.w3.org/2000/svg">
<path d="M38.7924 41.9249C39.6983 42.8299 41.4163 42.5827 42.6242 41.3775C43.8321 40.1723 44.0839 38.4517 43.1716 37.5457C42.2593 36.6398 40.5477 36.8797 39.3398 38.0931C38.1319 39.3065 37.8865 41.0126 38.7924 41.9249Z" fill="url(#paint0_linear)"/>
<path d="M54.6666 29.3867H52.842V36.6854H54.6666V29.3867Z" fill="url(#paint1_linear)"/>
<path d="M54.6666 56.1573C54.6666 58.1727 53.0327 59.8066 51.0173 59.8066H30.9461C28.9306 59.8066 27.2967 58.1727 27.2967 56.1573V49.771H25.4721V52.0518C25.4721 56.3347 22.0001 59.8066 17.7173 59.8066C13.4344 59.8066 9.9625 56.3347 9.9625 52.0518V28.5338C9.39982 28.2105 9.05213 27.6117 9.05017 26.9628V21.4888C9.05259 20.91 9.32952 20.3666 9.79646 20.0245L9.26822 17.9107C9.12331 17.3322 9.05008 16.738 9.05017 16.1416V11.4532C9.05017 10.4455 9.8671 9.62854 10.8748 9.62854H11.7872V5.97922C11.7872 5.47536 12.1956 5.06689 12.6995 5.06689C13.2034 5.06689 13.6118 5.47536 13.6118 5.97922V9.62854H14.5241C15.5319 9.62854 16.3488 10.4455 16.3488 11.4532V16.1416C16.3489 16.738 16.2757 17.3322 16.1308 17.9107L15.6025 20.0245C16.0695 20.3666 16.3464 20.91 16.3488 21.4888V26.9628C16.3468 27.6117 15.9992 28.2105 15.4365 28.5338V52.0518C15.4365 53.3115 16.4576 54.3326 17.7173 54.3326C18.977 54.3326 19.9981 53.3115 19.9981 52.0518V49.6031C18.9085 49.2179 18.1782 48.1897 18.1735 47.034V40.6477C18.1782 39.492 18.9085 38.4638 19.9981 38.0786V34.2614C20.0011 31.7433 22.0417 29.7028 24.5598 29.6998H27.2967V29.3868C27.2936 28.1762 27.7749 27.0146 28.6333 26.1608L34.5954 20.1988V16.9272C34.5954 15.4156 35.8208 14.1902 37.3324 14.1902H38.2447V12.3655C36.2292 12.3655 34.5954 10.7317 34.5954 8.71621V5.97922C34.5954 5.47536 35.0038 5.06689 35.5077 5.06689H46.4556C46.9595 5.06689 47.368 5.47536 47.368 5.97922V8.71621C47.368 10.7317 45.7341 12.3655 43.7187 12.3655V14.1902H44.631C46.1426 14.1902 47.368 15.4156 47.368 16.9272V20.1988L53.33 26.1608C54.1884 27.0146 54.6697 28.1761 54.6666 29.3867C54.6666 29.8906 54.2581 30.2992 53.7543 30.2992C53.2504 30.2992 52.842 29.8906 52.842 29.3867C52.8435 28.6603 52.5547 27.9635 52.04 27.4509L46.0779 21.4888H35.8854L29.9233 27.4509C29.4081 27.9631 29.1193 28.6603 29.1214 29.3868V52.508H31.8584C32.3622 52.508 32.7707 52.9164 32.7707 53.4203C32.7707 53.9242 32.3622 54.3326 31.8584 54.3326H29.1214V56.1573C29.1214 57.165 29.9383 57.9819 30.9461 57.9819H51.0173C52.025 57.9819 52.8419 57.165 52.8419 56.1573V54.3326H35.5077C35.0038 54.3326 34.5954 53.9242 34.5954 53.4203C34.5954 52.9164 35.0038 52.508 35.5077 52.508H52.8419L52.842 36.6854C52.842 36.1815 53.2504 35.7731 53.7543 35.7731C54.2581 35.7731 54.6666 36.1815 54.6666 36.6854L54.6666 56.1573ZM45.5433 8.71621V6.89155H36.42V8.71621C36.42 9.72394 37.237 10.5409 38.2447 10.5409H43.7187C44.7264 10.5409 45.5433 9.72394 45.5433 8.71621ZM41.894 12.3655H40.0693V14.1902H41.894V12.3655ZM45.5433 16.9272C45.5433 16.4233 45.1348 16.0148 44.631 16.0148H37.3324C36.8285 16.0148 36.42 16.4233 36.42 16.9272V19.6641H45.5433V16.9272ZM25.4721 37.9107H27.2967V35.1737H25.4721V37.9107ZM14.5241 26.9628V21.4888H10.8748V26.9628H14.5241ZM14.5241 11.4532H10.8748V16.1416C10.8753 16.5891 10.9301 17.0349 11.0381 17.4691L11.5864 19.6641H13.8125L14.3599 17.4691C14.4683 17.0349 14.5234 16.5891 14.5241 16.1416V11.4532ZM17.7173 56.1573C15.4509 56.1548 13.6143 54.3182 13.6118 52.0518V28.7874H11.7872V52.0518C11.7872 55.3269 14.4422 57.9819 17.7173 57.9819C20.9924 57.9819 23.6474 55.3269 23.6474 52.0518V49.771H21.8228V52.0518C21.8203 54.3182 19.9836 56.1548 17.7173 56.1573ZM19.9981 47.034C19.9981 47.5379 20.4066 47.9463 20.9104 47.9463H27.2967V39.7354H20.9104C20.4066 39.7354 19.9981 40.1438 19.9981 40.6477V47.034ZM24.5598 31.5244C23.0482 31.5244 21.8228 32.7498 21.8228 34.2614V37.9107H23.6474V35.1737C23.6474 34.166 24.4644 33.3491 25.4721 33.3491H27.2967V31.5244H24.5598Z" fill="url(#paint2_linear)"/>
<path d="M51.0174 39.7354C51.0187 42.3886 49.9659 44.9336 48.0906 46.8105C48.0851 46.8169 48.0833 46.8251 48.0769 46.8306C48.0705 46.8361 48.0632 46.8388 48.0569 46.8443C44.1401 50.7611 37.7897 50.7611 33.8729 46.8443C29.9561 42.9275 29.9561 36.5771 33.8729 32.6603C33.8784 32.6539 33.8802 32.6457 33.8866 32.6402C33.893 32.6348 33.9003 32.632 33.9067 32.6265C36.7782 29.7633 41.0913 28.911 44.836 30.4668C48.5808 32.0226 51.0202 35.6803 51.0174 39.7354ZM40.9818 47.9464C42.8437 47.9471 44.6499 47.3113 46.1008 46.1445L42.5637 42.6074C42.351 42.7489 42.127 42.8728 41.8941 42.9778V44.2971C41.8941 44.8009 41.4856 45.2094 40.9818 45.2094C40.4779 45.2094 40.0694 44.8009 40.0694 44.2971V43.3647C39.3511 43.3547 38.6636 43.0712 38.1472 42.5718C37.6448 42.0555 37.357 41.3679 37.3416 40.6477H36.4201C35.9163 40.6477 35.5078 40.2393 35.5078 39.7354C35.5078 39.2315 35.9163 38.8231 36.4201 38.8231H37.7275C37.8378 38.591 37.9669 38.3682 38.1134 38.1571L34.5727 34.6163C32.599 37.0787 32.2132 40.455 33.5807 43.2991C34.9481 46.1431 37.8261 47.9503 40.9818 47.9464ZM42.7873 39.219C42.8618 38.8547 42.7657 38.4763 42.5263 38.1918C42.3143 37.9994 42.035 37.8985 41.749 37.9108C41.3926 37.9229 41.0444 38.0206 40.7336 38.1954L42.5282 39.99C42.6573 39.7494 42.7449 39.4888 42.7873 39.219ZM39.4381 41.2864C39.979 41.6582 40.6939 41.6553 41.2317 41.2791L39.4399 39.4873C39.0582 40.026 39.0575 40.7468 39.4381 41.2864ZM40.9818 31.5245C39.1199 31.5237 37.3136 32.1595 35.8627 33.3263L39.3998 36.8634C39.6124 36.719 39.8363 36.592 40.0694 36.4839V35.1738C40.0694 34.6699 40.4779 34.2614 40.9818 34.2614C41.4856 34.2614 41.8941 34.6699 41.8941 35.1738V36.0989C42.2935 36.1152 42.6857 36.2104 43.0482 36.379L43.9861 35.4411C44.344 35.0953 44.9131 35.1003 45.265 35.4522C45.6169 35.8041 45.6218 36.3731 45.2761 36.7311L44.3327 37.6745C44.503 38.0347 44.6 38.4251 44.6183 38.8231H45.5434C46.0473 38.8231 46.4557 39.2315 46.4557 39.7354C46.4557 40.2393 46.0473 40.6477 45.5434 40.6477H44.226C44.1183 40.8789 43.9917 41.1007 43.8474 41.311L47.3909 44.8545C49.3645 42.3922 49.7503 39.0158 48.3829 36.1718C47.0154 33.3277 44.1375 31.5206 40.9818 31.5245Z" fill="url(#paint3_linear)"/>
<path d="M36.4197 26.0505C35.9158 26.0505 35.5074 25.642 35.5074 25.1382C35.5074 24.6343 35.9158 24.2258 36.4197 24.2258H45.543C46.0468 24.2258 46.4553 24.6343 46.4553 25.1382C46.4553 25.642 46.0468 26.0505 45.543 26.0505H36.4197Z" fill="url(#paint4_linear)"/>
<defs>
<linearGradient id="paint0_linear" x1="4.99994" y1="5.00024" x2="61.5" y2="61.0002" gradientUnits="userSpaceOnUse">
<stop stop-color="#67DA96"/>
<stop offset="1" stop-color="#48AD4C"/>
</linearGradient>
<linearGradient id="paint1_linear" x1="4.99994" y1="5.00024" x2="61.5" y2="61.0002" gradientUnits="userSpaceOnUse">
<stop stop-color="#67DA96"/>
<stop offset="1" stop-color="#48AD4C"/>
</linearGradient>
<linearGradient id="paint2_linear" x1="4.99994" y1="5.00024" x2="61.5" y2="61.0002" gradientUnits="userSpaceOnUse">
<stop stop-color="#67DA96"/>
<stop offset="1" stop-color="#48AD4C"/>
</linearGradient>
<linearGradient id="paint3_linear" x1="4.99994" y1="5.00024" x2="61.5" y2="61.0002" gradientUnits="userSpaceOnUse">
<stop stop-color="#67DA96"/>
<stop offset="1" stop-color="#48AD4C"/>
</linearGradient>
<linearGradient id="paint4_linear" x1="4.99994" y1="5.00024" x2="61.5" y2="61.0002" gradientUnits="userSpaceOnUse">
<stop stop-color="#67DA96"/>
<stop offset="1" stop-color="#48AD4C"/>
</linearGradient>
</defs>
</svg>
