<svg width="64" height="64" viewBox="0 0 64 64" fill="none" xmlns="http://www.w3.org/2000/svg">
<path d="M14.9087 42.7153C14.9087 42.7441 14.8997 42.7711 14.8997 42.7999H15.7664C15.4785 42.7985 15.1914 42.7701 14.9087 42.7153Z" fill="url(#paint0_linear)"/>
<path d="M14.9087 50.8154C14.9087 50.8442 14.8997 50.8712 14.8997 50.9H15.7664C15.4785 50.8985 15.1914 50.8702 14.9087 50.8154Z" fill="url(#paint1_linear)"/>
<path d="M6.79955 57.2H13.9995V59H6.79955V57.2Z" fill="url(#paint2_linear)"/>
<path d="M10.4182 59C9.92111 59.0025 9.51615 58.6015 9.51366 58.1045C9.51118 57.6074 9.91211 57.2025 10.4092 57.2H10.4182C10.9152 57.2 11.3182 57.6029 11.3182 58.1C11.3182 58.597 10.9152 59 10.4182 59Z" fill="url(#paint3_linear)"/>
<path d="M57.2 50H55.0112C55.5967 49.3623 56.0188 48.5921 56.2415 47.7554C56.3833 47.2192 56.2664 46.6476 55.9255 46.2101C55.5806 45.7603 55.0452 45.4976 54.4784 45.5H53.6828C52.3229 45.4989 51.0109 46.0017 50 46.9112V43.7H50.9333C53.4162 43.7137 55.5968 42.0528 56.2433 39.6554C56.3851 39.1192 56.2682 38.5476 55.9273 38.1101C55.582 37.6598 55.0458 37.3971 54.4784 37.4H53.6828C52.3229 37.3989 51.0109 37.9017 50 38.8112V35.6H50.9333C53.4162 35.6137 55.5968 33.9528 56.2433 31.5554C56.3851 31.0192 56.2682 30.4476 55.9273 30.0101C55.582 29.5598 55.0458 29.2971 54.4784 29.3H53.6828C52.3229 29.299 51.0109 29.8017 50 30.7112V27.5H50.9333C53.4162 27.5137 55.5968 25.8528 56.2433 23.4554C56.3851 22.9192 56.2682 22.3476 55.9273 21.9101C55.582 21.4598 55.0458 21.1971 54.4784 21.2H53.6828C52.3229 21.199 51.0109 21.7017 50 22.6112V17.6C50 17.103 49.597 16.7 49.1 16.7C48.6029 16.7 48.2 17.103 48.2 17.6V22.6112C47.189 21.7017 45.877 21.199 44.5172 21.2H43.7216C43.1547 21.1977 42.6194 21.4603 42.2744 21.9101C41.9335 22.3476 41.8167 22.9192 41.9585 23.4554C42.6048 25.8522 44.7843 27.5129 47.2667 27.5H48.2V30.7112C47.189 29.8017 45.877 29.299 44.5172 29.3H43.7216C43.1547 29.2977 42.6194 29.5603 42.2744 30.0101C41.9335 30.4476 41.8167 31.0192 41.9585 31.5554C42.6048 33.9522 44.7843 35.6129 47.2667 35.6H48.2V38.8112C47.189 37.9017 45.877 37.3989 44.5172 37.4H43.7216C43.1547 37.3977 42.6194 37.6603 42.2744 38.1101C41.9335 38.5476 41.8167 39.1192 41.9585 39.6554C42.6048 42.0521 44.7843 43.7129 47.2667 43.7H48.2V46.9112C47.189 46.0017 45.877 45.4989 44.5172 45.5H43.7216C43.1547 45.4976 42.6194 45.7603 42.2744 46.2101C41.9335 46.6476 41.8167 47.2192 41.9585 47.7554C42.1811 48.5921 42.6032 49.3623 43.1888 50H37.9112C38.4967 49.3623 38.9188 48.5921 39.1415 47.7554C39.2833 47.2192 39.1664 46.6476 38.8256 46.2101C38.4806 45.7603 37.9452 45.4976 37.3784 45.5H36.5828C35.2229 45.4989 33.9109 46.0017 32.9 46.9112V43.7H33.8333C36.3163 43.7137 38.4968 42.0528 39.1433 39.6554C39.2851 39.1192 39.1682 38.5476 38.8274 38.1101C38.482 37.6598 37.9458 37.3971 37.3784 37.4H36.5828C35.2229 37.3989 33.9109 37.9017 32.9 38.8112V35.6H33.8333C36.3163 35.6137 38.4968 33.9528 39.1433 31.5554C39.2851 31.0192 39.1682 30.4476 38.8274 30.0101C38.482 29.5598 37.9458 29.2971 37.3784 29.3H36.5828C35.2229 29.299 33.9109 29.8017 32.9 30.7112V28.4C32.9 27.903 32.497 27.5 32 27.5C31.5029 27.5 31.1 27.903 31.1 28.4V30.7121C30.0892 29.8023 28.7771 29.2992 27.4172 29.3H26.6216C26.0547 29.2977 25.5194 29.5603 25.1744 30.0101C24.8335 30.4476 24.7167 31.0192 24.8585 31.5554C25.5048 33.9522 27.6844 35.6129 30.1667 35.6H31.1V38.8112C30.089 37.9017 28.777 37.3989 27.4172 37.4H26.6216C26.0547 37.3977 25.5194 37.6603 25.1744 38.1101C24.8335 38.5476 24.7167 39.1192 24.8585 39.6554C25.5048 42.0521 27.6844 43.7129 30.1667 43.7H31.1V46.9112C30.089 46.0017 28.777 45.4989 27.4172 45.5H26.6216C26.0547 45.4976 25.5194 45.7603 25.1744 46.2101C24.8335 46.6476 24.7167 47.2192 24.8585 47.7554C25.0811 48.5921 25.5033 49.3623 26.0888 50H20.8112C21.3967 49.3623 21.8189 48.5921 22.0415 47.7554C22.1833 47.2192 22.0664 46.6476 21.7256 46.2101C21.3806 45.7603 20.8452 45.4976 20.2784 45.5H19.4828C18.1229 45.4989 16.8109 46.0017 15.8 46.9112V43.7H16.7333C19.2163 43.7137 21.3968 42.0528 22.0433 39.6554C22.1851 39.1192 22.0682 38.5476 21.7274 38.1101C21.382 37.6598 20.8459 37.3971 20.2784 37.4H19.4828C18.1229 37.3989 16.8109 37.9017 15.8 38.8112V33.8C15.8 33.303 15.397 32.9 14.9 32.9C14.4029 32.9 14 33.303 14 33.8V38.8112C12.9891 37.9017 11.677 37.3989 10.3172 37.4H9.5216C8.95476 37.3977 8.41939 37.6603 8.0744 38.1101C7.73355 38.5476 7.6167 39.1192 7.7585 39.6554C8.40479 42.0521 10.5844 43.7129 13.0667 43.7H14V46.9112C12.9891 46.0017 11.677 45.4989 10.3172 45.5H9.5216C8.95476 45.4976 8.41939 45.7603 8.0744 46.2101C7.73355 46.6476 7.6167 47.2192 7.7585 47.7554C7.98112 48.5921 8.40328 49.3623 8.9888 50H6.8C5.80589 50 5 50.8059 5 51.8V57.2C5 58.1941 5.80544 59 6.79955 59C7.29661 59 7.7 58.5971 7.7 58.1C7.7 57.6029 7.29661 57.2 6.79955 57.2L6.8 55.4H28.4C28.897 55.4 29.3 54.9971 29.3 54.5C29.3 54.0029 28.897 53.6 28.4 53.6H6.8V51.8H57.2V53.6H50C49.5029 53.6 49.1 54.0029 49.1 54.5C49.1 54.9971 49.5029 55.4 50 55.4H57.2V57.2L13.9995 57.2C13.5025 57.2 13.1 57.6029 13.1 58.1C13.1 58.5971 13.5025 59 13.9995 59L57.2 59C58.1941 59 58.9999 58.1941 58.9999 57.2V51.8C58.9999 50.8059 58.1941 50 57.2 50ZM53.6828 39.2H54.5C54.061 40.8052 52.5964 41.9136 50.9324 41.9H50.117C50.5574 40.2966 52.02 39.1891 53.6828 39.2ZM53.6828 31.1H54.5C54.061 32.7052 52.5964 33.8136 50.9324 33.8H50.117C50.5574 32.1966 52.02 31.0891 53.6828 31.1ZM53.6828 23H54.5C54.061 24.6052 52.5964 25.7136 50.9324 25.7H50.117C50.5574 24.0966 52.02 22.9891 53.6828 23ZM47.2667 25.7C45.6056 25.7196 44.1442 24.6066 43.7216 23H44.5172C46.1799 22.9891 47.6425 24.0966 48.083 25.7H47.2667ZM47.2667 33.8C45.6056 33.8196 44.1442 32.7065 43.7216 31.1H44.5172C46.1799 31.0891 47.6425 32.1966 48.083 33.8H47.2667ZM47.2667 41.9C45.6056 41.9196 44.1442 40.8065 43.7216 39.2H44.5172C46.1799 39.1891 47.6425 40.2966 48.083 41.9H47.2667ZM36.5828 39.2H37.4C36.961 40.8052 35.4964 41.9136 33.8324 41.9H33.017C33.4574 40.2966 34.92 39.1891 36.5828 39.2ZM36.5828 31.1H37.4C36.961 32.7052 35.4964 33.8136 33.8324 33.8H33.017C33.4574 32.1966 34.92 31.0891 36.5828 31.1ZM30.1667 33.8C28.5056 33.8196 27.0442 32.7065 26.6216 31.1H27.4172C29.0799 31.0891 30.5426 32.1966 30.983 33.8H30.1667ZM30.1667 41.9C28.5056 41.9196 27.0442 40.8065 26.6216 39.2H27.4172C29.0799 39.1891 30.5426 40.2966 30.983 41.9H30.1667ZM19.4828 39.2H20.3C19.8611 40.8052 18.3964 41.9136 16.7324 41.9H15.917C16.3574 40.2966 17.8201 39.1891 19.4828 39.2ZM13.0667 41.9C11.4056 41.9196 9.94421 40.8065 9.5216 39.2H10.3172C11.9799 39.1891 13.4426 40.2966 13.883 41.9H13.0667ZM13.0667 50C11.4056 50.0196 9.94421 48.9065 9.5216 47.3H10.3172C11.9799 47.2891 13.4426 48.3966 13.883 50H13.0667ZM15.917 50C16.3574 48.3966 17.8201 47.2891 19.4828 47.3H20.3C19.8611 48.9052 18.3964 50.0136 16.7324 50H15.917ZM30.1667 50C28.5056 50.0196 27.0442 48.9065 26.6216 47.3H27.4172C29.0799 47.2891 30.5426 48.3966 30.983 50H30.1667ZM33.017 50C33.4574 48.3966 34.92 47.2891 36.5828 47.3H37.4C36.961 48.9052 35.4964 50.0136 33.8324 50H33.017ZM47.2667 50C45.6056 50.0196 44.1442 48.9065 43.7216 47.3H44.5172C46.1799 47.2891 47.6425 48.3966 48.083 50H47.2667ZM50.117 50C50.5574 48.3966 52.02 47.2891 53.6828 47.3H54.5C54.061 48.9052 52.5964 50.0136 50.9324 50H50.117Z" fill="url(#paint4_linear)"/>
<path d="M46.3998 55.3999C46.8968 55.3999 47.2998 54.9969 47.2998 54.4999C47.2998 54.0028 46.8968 53.5999 46.3998 53.5999H31.9998C31.5027 53.5999 31.0998 54.0028 31.0998 54.4999C31.0998 54.9969 31.5027 55.3999 31.9998 55.3999H46.3998Z" fill="url(#paint5_linear)"/>
<path d="M17.5998 24.8C21.5763 24.8 24.7998 21.5765 24.7998 17.6C24.7998 13.6236 21.5763 10.4 17.5998 10.4C13.6234 10.4 10.3998 13.6236 10.3998 17.6C10.4043 21.5746 13.6252 24.7956 17.5998 24.8ZM17.5998 12.2C20.5822 12.2 22.9998 14.6177 22.9998 17.6C22.9998 20.5824 20.5822 23 17.5998 23C14.6175 23 12.1998 20.5824 12.1998 17.6C12.2028 14.6189 14.6187 12.203 17.5998 12.2Z" fill="url(#paint6_linear)"/>
<path d="M18.5004 7.7V5.9C18.5004 5.40294 18.0975 5 17.6004 5C17.1034 5 16.7004 5.40294 16.7004 5.9V7.7C16.7004 8.19705 17.1034 8.59999 17.6004 8.59999C18.0975 8.59999 18.5004 8.19705 18.5004 7.7Z" fill="url(#paint7_linear)"/>
<path d="M12.6498 9.92654C12.9712 9.92621 13.268 9.75454 13.4286 9.47614C13.5891 9.19774 13.589 8.85486 13.4283 8.57654L12.5283 7.01684C12.2781 6.59005 11.7304 6.44523 11.3019 6.6926C10.8735 6.93996 10.725 7.48677 10.9696 7.91684L11.8696 9.47654C12.0305 9.75527 12.328 9.92685 12.6498 9.92654Z" fill="url(#paint8_linear)"/>
<path d="M9.47657 11.8706L7.91687 10.9706C7.63826 10.8073 7.29349 10.8058 7.01344 10.9666C6.73339 11.1275 6.56099 11.4261 6.5617 11.749C6.56241 12.072 6.73612 12.3698 7.01687 12.5294L8.57657 13.4294C8.71325 13.5088 8.86854 13.5504 9.02657 13.55C9.4339 13.55 9.79044 13.2764 9.89586 12.883C10.0013 12.4895 9.82932 12.0743 9.47657 11.8706Z" fill="url(#paint9_linear)"/>
<path d="M5 17.6C5 18.0971 5.40294 18.5 5.9 18.5H7.7C8.19705 18.5 8.59999 18.0971 8.59999 17.6C8.59999 17.103 8.19705 16.7 7.7 16.7H5.9C5.40294 16.7 5 17.103 5 17.6Z" fill="url(#paint10_linear)"/>
<path d="M8.57657 21.7706L7.01687 22.6706C6.73612 22.8302 6.56241 23.128 6.5617 23.451C6.56099 23.774 6.73339 24.0725 7.01344 24.2334C7.29349 24.3943 7.63826 24.3927 7.91687 24.2294L9.47657 23.3294C9.75733 23.1698 9.93103 22.872 9.93174 22.549C9.93245 22.226 9.76006 21.9275 9.48001 21.7666C9.19996 21.6057 8.85518 21.6073 8.57657 21.7706Z" fill="url(#paint11_linear)"/>
<path d="M11.8705 25.7234L10.9705 27.2831C10.8072 27.5617 10.8056 27.9065 10.9665 28.1865C11.1274 28.4666 11.4259 28.6389 11.7489 28.6382C12.0719 28.6375 12.3697 28.4638 12.5293 28.1831L13.4293 26.6234C13.6738 26.1933 13.5254 25.6465 13.0969 25.3991C12.6685 25.1518 12.1207 25.2966 11.8705 25.7234Z" fill="url(#paint12_linear)"/>
<path d="M16.7004 27.4999V29.2999C16.7004 29.797 17.1034 30.1999 17.6004 30.1999C18.0975 30.1999 18.5004 29.797 18.5004 29.2999V27.4999C18.5004 27.0029 18.0975 26.5999 17.6004 26.5999C17.1034 26.5999 16.7004 27.0029 16.7004 27.4999Z" fill="url(#paint13_linear)"/>
<path d="M22.0998 25.394C21.6694 25.6426 21.5219 26.193 21.7704 26.6234L22.6704 28.1831C22.83 28.4639 23.1279 28.6376 23.4508 28.6383C23.7738 28.639 24.0724 28.4666 24.2332 28.1866C24.3941 27.9065 24.3925 27.5618 24.2292 27.2831L23.3292 25.7234C23.0807 25.293 22.5303 25.1455 22.0998 25.394Z" fill="url(#paint14_linear)"/>
<path d="M25.7236 23.3293L27.2833 24.2293C27.5619 24.3927 27.9067 24.3942 28.1867 24.2334C28.4668 24.0725 28.6392 23.7739 28.6385 23.451C28.6377 23.128 28.464 22.8302 28.1833 22.6705L26.6236 21.7705C26.1935 21.526 25.6467 21.6745 25.3993 22.1029C25.152 22.5314 25.2968 23.0791 25.7236 23.3293Z" fill="url(#paint15_linear)"/>
<path d="M26.6001 17.6C26.6001 18.0971 27.0031 18.5 27.5001 18.5H29.3001C29.7972 18.5 30.2001 18.0971 30.2001 17.6C30.2001 17.103 29.7972 16.7 29.3001 16.7H27.5001C27.0031 16.7 26.6001 17.103 26.6001 17.6Z" fill="url(#paint16_linear)"/>
<path d="M27.2829 10.9706L25.7232 11.8706C25.4425 12.0303 25.2688 12.3281 25.268 12.651C25.2673 12.974 25.4397 13.2726 25.7198 13.4334C25.9998 13.5943 26.3446 13.5928 26.6232 13.4294L28.1829 12.5294C28.4637 12.3698 28.6374 12.072 28.6381 11.749C28.6388 11.4261 28.4664 11.1275 28.1863 10.9666C27.9063 10.8058 27.5615 10.8073 27.2829 10.9706Z" fill="url(#paint17_linear)"/>
<path d="M22.5499 9.92657C22.8718 9.92688 23.1693 9.7553 23.3302 9.47657L24.2302 7.91687C24.3936 7.63826 24.3951 7.29349 24.2342 7.01344C24.0734 6.73339 23.7748 6.56099 23.4518 6.5617C23.1289 6.56241 22.8311 6.73612 22.6714 7.01687L21.7714 8.57657C21.6108 8.85489 21.6107 9.19777 21.7712 9.47617C21.9318 9.75457 22.2286 9.92624 22.5499 9.92657Z" fill="url(#paint18_linear)"/>
<defs>
<linearGradient id="paint0_linear" x1="0.205407" y1="4.93425" x2="55.1163" y2="70.244" gradientUnits="userSpaceOnUse">
<stop stop-color="#67DA96"/>
<stop offset="1" stop-color="#48AD4C"/>
</linearGradient>
<linearGradient id="paint1_linear" x1="0.205407" y1="4.93425" x2="55.1163" y2="70.244" gradientUnits="userSpaceOnUse">
<stop stop-color="#67DA96"/>
<stop offset="1" stop-color="#48AD4C"/>
</linearGradient>
<linearGradient id="paint2_linear" x1="0.205407" y1="4.93425" x2="55.1163" y2="70.244" gradientUnits="userSpaceOnUse">
<stop stop-color="#67DA96"/>
<stop offset="1" stop-color="#48AD4C"/>
</linearGradient>
<linearGradient id="paint3_linear" x1="0.205407" y1="4.93425" x2="55.1163" y2="70.244" gradientUnits="userSpaceOnUse">
<stop stop-color="#67DA96"/>
<stop offset="1" stop-color="#48AD4C"/>
</linearGradient>
<linearGradient id="paint4_linear" x1="0.205407" y1="4.93425" x2="55.1163" y2="70.244" gradientUnits="userSpaceOnUse">
<stop stop-color="#67DA96"/>
<stop offset="1" stop-color="#48AD4C"/>
</linearGradient>
<linearGradient id="paint5_linear" x1="0.205407" y1="4.93425" x2="55.1163" y2="70.244" gradientUnits="userSpaceOnUse">
<stop stop-color="#67DA96"/>
<stop offset="1" stop-color="#48AD4C"/>
</linearGradient>
<linearGradient id="paint6_linear" x1="0.205407" y1="4.93425" x2="55.1163" y2="70.244" gradientUnits="userSpaceOnUse">
<stop stop-color="#67DA96"/>
<stop offset="1" stop-color="#48AD4C"/>
</linearGradient>
<linearGradient id="paint7_linear" x1="0.205407" y1="4.93425" x2="55.1163" y2="70.244" gradientUnits="userSpaceOnUse">
<stop stop-color="#67DA96"/>
<stop offset="1" stop-color="#48AD4C"/>
</linearGradient>
<linearGradient id="paint8_linear" x1="0.205407" y1="4.93425" x2="55.1163" y2="70.244" gradientUnits="userSpaceOnUse">
<stop stop-color="#67DA96"/>
<stop offset="1" stop-color="#48AD4C"/>
</linearGradient>
<linearGradient id="paint9_linear" x1="0.205407" y1="4.93425" x2="55.1163" y2="70.244" gradientUnits="userSpaceOnUse">
<stop stop-color="#67DA96"/>
<stop offset="1" stop-color="#48AD4C"/>
</linearGradient>
<linearGradient id="paint10_linear" x1="0.205407" y1="4.93425" x2="55.1163" y2="70.244" gradientUnits="userSpaceOnUse">
<stop stop-color="#67DA96"/>
<stop offset="1" stop-color="#48AD4C"/>
</linearGradient>
<linearGradient id="paint11_linear" x1="0.205407" y1="4.93425" x2="55.1163" y2="70.244" gradientUnits="userSpaceOnUse">
<stop stop-color="#67DA96"/>
<stop offset="1" stop-color="#48AD4C"/>
</linearGradient>
<linearGradient id="paint12_linear" x1="0.205407" y1="4.93425" x2="55.1163" y2="70.244" gradientUnits="userSpaceOnUse">
<stop stop-color="#67DA96"/>
<stop offset="1" stop-color="#48AD4C"/>
</linearGradient>
<linearGradient id="paint13_linear" x1="0.205407" y1="4.93425" x2="55.1163" y2="70.244" gradientUnits="userSpaceOnUse">
<stop stop-color="#67DA96"/>
<stop offset="1" stop-color="#48AD4C"/>
</linearGradient>
<linearGradient id="paint14_linear" x1="0.205407" y1="4.93425" x2="55.1163" y2="70.244" gradientUnits="userSpaceOnUse">
<stop stop-color="#67DA96"/>
<stop offset="1" stop-color="#48AD4C"/>
</linearGradient>
<linearGradient id="paint15_linear" x1="0.205407" y1="4.93425" x2="55.1163" y2="70.244" gradientUnits="userSpaceOnUse">
<stop stop-color="#67DA96"/>
<stop offset="1" stop-color="#48AD4C"/>
</linearGradient>
<linearGradient id="paint16_linear" x1="0.205407" y1="4.93425" x2="55.1163" y2="70.244" gradientUnits="userSpaceOnUse">
<stop stop-color="#67DA96"/>
<stop offset="1" stop-color="#48AD4C"/>
</linearGradient>
<linearGradient id="paint17_linear" x1="0.205407" y1="4.93425" x2="55.1163" y2="70.244" gradientUnits="userSpaceOnUse">
<stop stop-color="#67DA96"/>
<stop offset="1" stop-color="#48AD4C"/>
</linearGradient>
<linearGradient id="paint18_linear" x1="0.205407" y1="4.93425" x2="55.1163" y2="70.244" gradientUnits="userSpaceOnUse">
<stop stop-color="#67DA96"/>
<stop offset="1" stop-color="#48AD4C"/>
</linearGradient>
</defs>
</svg>
